<?xml version="1.0" encoding="utf-8" ?>
<svg baseProfile="full" height="97.64524101483403" version="1.1" width="267.3195807263255" xmlns="http://www.w3.org/2000/svg" xmlns:ev="http://www.w3.org/2001/xml-events" xmlns:xlink="http://www.w3.org/1999/xlink"><defs /><rect fill="white" height="97.64524101483403" width="267.3195807263255" x="0" y="0" /><path d="M 25.0,53.05897594225826 " fill="rgb(0,0,0)" stroke="rgb(0,0,0)" stroke-width="2" /><path d="M +25.0,53.05897594225826 L 26.37457251548767,52.72887051833095 " fill="rgb(0,0,0)" stroke="rgb(0,0,0)" stroke-width="2" /><path d="M +26.37457251548767,52.72887051833095 L 28.848791122436523,51.73855424654903 " fill="rgb(0,0,0)" stroke="rgb(0,0,0)" stroke-width="2" /><path d="M +28.848791122436523,51.73855424654903 L 31.597936153411865,49.97799695265712 " fill="rgb(0,0,0)" stroke="rgb(0,0,0)" stroke-width="2" /><path d="M +31.597936153411865,49.97799695265712 L 34.07215476036072,47.447183735494036 " fill="rgb(0,0,0)" stroke="rgb(0,0,0)" stroke-width="2" /><path d="M +34.07215476036072,47.447183735494036 L 37.92094588279724,45.46655119193019 " fill="rgb(0,0,0)" stroke="rgb(0,0,0)" stroke-width="2" /><path d="M +37.92094588279724,45.46655119193019 L 39.98281955718994,43.48591864836635 " fill="rgb(0,0,0)" stroke="rgb(0,0,0)" stroke-width="2" /><path d="M +39.98281955718994,43.48591864836635 L 42.457038164138794,42.27552712691249 " fill="rgb(0,0,0)" stroke="rgb(0,0,0)" stroke-width="2" /><path d="M +42.457038164138794,42.27552712691249 L 44.106507301330566,41.72534645331325 " fill="rgb(0,0,0)" stroke="rgb(0,0,0)" stroke-width="2" /><path d="M +44.106507301330566,41.72534645331325 L 44.93125677108765,41.72534645331325 " fill="rgb(0,0,0)" stroke="rgb(0,0,0)" stroke-width="2" /><path d="M +44.93125677108765,41.72534645331325 L 45.068705023732036,42.16549695265712 " fill="rgb(0,0,0)" stroke="rgb(0,0,0)" stroke-width="2" /><path d="M +45.068705023732036,42.16549695265712 L 44.931256712879986,43.375873572949786 " fill="rgb(0,0,0)" stroke="rgb(0,0,0)" stroke-width="2" /><path d="M +44.931256712879986,43.375873572949786 L 44.656360091175884,45.35650611651363 " fill="rgb(0,0,0)" stroke="rgb(0,0,0)" stroke-width="2" /><path d="M +44.656360091175884,45.35650611651363 L 44.243985356297344,47.447183735494036 " fill="rgb(0,0,0)" stroke="rgb(0,0,0)" stroke-width="2" /><path d="M +44.243985356297344,47.447183735494036 L 43.28178757568821,49.31778610480251 " fill="rgb(0,0,0)" stroke="rgb(0,0,0)" stroke-width="2" /><path d="M +43.28178757568821,49.31778610480251 L 42.04466337105259,51.188373572949786 " fill="rgb(0,0,0)" stroke="rgb(0,0,0)" stroke-width="2" /><path d="M +42.04466337105259,51.188373572949786 L 40.67009085556492,52.72887051833095 " fill="rgb(0,0,0)" stroke="rgb(0,0,0)" stroke-width="2" /><path d="M +40.67009085556492,52.72887051833095 L 39.29551834007725,54.15932238829555 " fill="rgb(0,0,0)" stroke="rgb(0,0,0)" stroke-width="2" /><path d="M +39.29551834007725,54.15932238829555 L 38.19587224861607,55.47975898516597 " fill="rgb(0,0,0)" stroke="rgb(0,0,0)" stroke-width="2" /><path d="M +38.19587224861607,55.47975898516597 L 36.95874804398045,56.13996983302059 " fill="rgb(0,0,0)" stroke="rgb(0,0,0)" stroke-width="2" /><path d="M +36.95874804398045,56.13996983302059 L 36.68385142227635,56.36003018153133 " fill="rgb(0,0,0)" stroke="rgb(0,0,0)" stroke-width="2" /><path d="M +36.68385142227635,56.36003018153133 L 36.68385142227635,56.36003018153133 " fill="rgb(0,0,0)" stroke="rgb(0,0,0)" stroke-width="2" /><path d="M +36.68385142227635,56.36003018153133 L 37.92094582458958,56.8001806808752 " fill="rgb(0,0,0)" stroke="rgb(0,0,0)" stroke-width="2" /><path d="M +37.92094582458958,56.8001806808752 L 38.60824698349461,56.25000000727596 " fill="rgb(0,0,0)" stroke="rgb(0,0,0)" stroke-width="2" /><path d="M +38.60824698349461,56.25000000727596 L 40.67009085556492,55.47975898516597 " fill="rgb(0,0,0)" stroke="rgb(0,0,0)" stroke-width="2" /><path d="M +40.67009085556492,55.47975898516597 L 43.28178757568821,54.379397637967486 " fill="rgb(0,0,0)" stroke="rgb(0,0,0)" stroke-width="2" /><path d="M +43.28178757568821,54.379397637967486 L 46.168380917515606,52.508795268659014 " fill="rgb(0,0,0)" stroke="rgb(0,0,0)" stroke-width="2" /><path d="M +46.168380917515606,52.508795268659014 L 49.32990068336949,50.30810237658443 " fill="rgb(0,0,0)" stroke="rgb(0,0,0)" stroke-width="2" /><path d="M +49.32990068336949,50.30810237658443 L 52.90376538177952,47.77728915942134 " fill="rgb(0,0,0)" stroke="rgb(0,0,0)" stroke-width="2" /><path d="M +52.90376538177952,47.77728915942134 L 56.477659882511944,45.136445768002886 " fill="rgb(0,0,0)" stroke="rgb(0,0,0)" stroke-width="2" /><path d="M +56.477659882511944,45.136445768002886 L 59.364253224339336,41.835391528729815 " fill="rgb(0,0,0)" stroke="rgb(0,0,0)" stroke-width="2" /><path d="M +59.364253224339336,41.835391528729815 L 62.52577299019322,38.754397637967486 " fill="rgb(0,0,0)" stroke="rgb(0,0,0)" stroke-width="2" /><path d="M +62.52577299019322,38.754397637967486 L 65.54981464287266,35.78344882262172 " fill="rgb(0,0,0)" stroke="rgb(0,0,0)" stroke-width="2" /><path d="M +65.54981464287266,35.78344882262172 L 67.74913662811741,32.59242475760402 " fill="rgb(0,0,0)" stroke="rgb(0,0,0)" stroke-width="2" /><path d="M +67.74913662811741,32.59242475760402 L 69.39860576530918,29.951581366185565 " fill="rgb(0,0,0)" stroke="rgb(0,0,0)" stroke-width="2" /><path d="M +69.39860576530918,29.951581366185565 L 70.49828165909275,27.750873572949786 " fill="rgb(0,0,0)" stroke="rgb(0,0,0)" stroke-width="2" /><path d="M +70.49828165909275,27.750873572949786 L 71.32300132652745,26.320421702985186 " fill="rgb(0,0,0)" stroke="rgb(0,0,0)" stroke-width="2" /><path d="M +71.32300132652745,26.320421702985186 L 71.04810470482334,25.330105431203265 " fill="rgb(0,0,0)" stroke="rgb(0,0,0)" stroke-width="2" /><path d="M +71.04810470482334,25.330105431203265 L 71.32300132652745,25.11003018153133 " fill="rgb(0,0,0)" stroke="rgb(0,0,0)" stroke-width="2" /><path d="M +71.32300132652745,25.11003018153133 L 70.63573008636013,25.0 " fill="rgb(0,0,0)" stroke="rgb(0,0,0)" stroke-width="2" /><path d="M +70.63573008636013,25.0 L 69.94842881103978,25.550180673599243 " fill="rgb(0,0,0)" stroke="rgb(0,0,0)" stroke-width="2" /><path d="M +69.94842881103978,25.550180673599243 L 68.43640798470005,26.87060236930847 " fill="rgb(0,0,0)" stroke="rgb(0,0,0)" stroke-width="2" /><path d="M +68.43640798470005,26.87060236930847 L 67.61168831726536,29.6214759349823 " fill="rgb(0,0,0)" stroke="rgb(0,0,0)" stroke-width="2" /><path d="M +67.61168831726536,29.6214759349823 L 65.82474106689915,32.8125 " fill="rgb(0,0,0)" stroke="rgb(0,0,0)" stroke-width="2" /><path d="M +65.82474106689915,32.8125 L 63.76286739250645,36.55368983745575 " fill="rgb(0,0,0)" stroke="rgb(0,0,0)" stroke-width="2" /><path d="M +63.76286739250645,36.55368983745575 L 61.83847183128819,40.51496982574463 " fill="rgb(0,0,0)" stroke="rgb(0,0,0)" stroke-width="2" /><path d="M +61.83847183128819,40.51496982574463 L 59.91407627006993,44.476234912872314 " fill="rgb(0,0,0)" stroke="rgb(0,0,0)" stroke-width="2" /><path d="M +59.91407627006993,44.476234912872314 L 58.951878489460796,48.217424750328064 " fill="rgb(0,0,0)" stroke="rgb(0,0,0)" stroke-width="2" /><path d="M +58.951878489460796,48.217424750328064 L 58.264607249293476,51.07834339141846 " fill="rgb(0,0,0)" stroke="rgb(0,0,0)" stroke-width="2" /><path d="M +58.264607249293476,51.07834339141846 L 58.402055501937866,52.72887051105499 " fill="rgb(0,0,0)" stroke="rgb(0,0,0)" stroke-width="2" /><path d="M +58.402055501937866,52.72887051105499 L 59.364253282547,53.16900610923767 " fill="rgb(0,0,0)" stroke="rgb(0,0,0)" stroke-width="2" /><path d="M +59.364253282547,53.16900610923767 L 61.42609715461731,52.838900685310364 " fill="rgb(0,0,0)" stroke="rgb(0,0,0)" stroke-width="2" /><path d="M +61.42609715461731,52.838900685310364 L 63.35049271583557,50.968313217163086 " fill="rgb(0,0,0)" stroke="rgb(0,0,0)" stroke-width="2" /><path d="M +63.35049271583557,50.968313217163086 L 66.23711585998535,48.76760542392731 " fill="rgb(0,0,0)" stroke="rgb(0,0,0)" stroke-width="2" /><path d="M +66.23711585998535,48.76760542392731 L 69.39860582351685,46.897003054618835 " fill="rgb(0,0,0)" stroke="rgb(0,0,0)" stroke-width="2" /><path d="M +69.39860582351685,46.897003054618835 L 71.32300138473511,45.466551184654236 " fill="rgb(0,0,0)" stroke="rgb(0,0,0)" stroke-width="2" /><path d="M +71.32300138473511,45.466551184654236 L 72.42267727851868,45.13644576072693 " fill="rgb(0,0,0)" stroke="rgb(0,0,0)" stroke-width="2" /><path d="M +72.42267727851868,45.13644576072693 L 72.69757390022278,45.57658135890961 " fill="rgb(0,0,0)" stroke="rgb(0,0,0)" stroke-width="2" /><path d="M +72.69757390022278,45.57658135890961 L 72.28519916534424,47.22710847854614 " fill="rgb(0,0,0)" stroke="rgb(0,0,0)" stroke-width="2" /><path d="M +72.28519916534424,47.22710847854614 L 71.59792792517692,49.42781627178192 " fill="rgb(0,0,0)" stroke="rgb(0,0,0)" stroke-width="2" /><path d="M +71.59792792517692,49.42781627178192 L 70.0859070988372,51.18837356567383 " fill="rgb(0,0,0)" stroke="rgb(0,0,0)" stroke-width="2" /><path d="M +70.0859070988372,51.18837356567383 L 70.0859070988372,53.0589759349823 " fill="rgb(0,0,0)" stroke="rgb(0,0,0)" stroke-width="2" /><path d="M +70.0859070988372,53.0589759349823 L 69.94842898566276,53.719186782836914 " fill="rgb(0,0,0)" stroke="rgb(0,0,0)" stroke-width="2" /><path d="M +69.94842898566276,53.719186782836914 L 71.04810487944633,54.26936745643616 " fill="rgb(0,0,0)" stroke="rgb(0,0,0)" stroke-width="2" /><path d="M +71.04810487944633,54.26936745643616 L 72.56012570578605,54.26936745643616 " fill="rgb(0,0,0)" stroke="rgb(0,0,0)" stroke-width="2" /><path d="M +72.56012570578605,54.26936745643616 L 73.52232348639518,53.49911153316498 " fill="rgb(0,0,0)" stroke="rgb(0,0,0)" stroke-width="2" /><path d="M +73.52232348639518,53.49911153316498 L 75.30927073676139,52.72887051105499 " fill="rgb(0,0,0)" stroke="rgb(0,0,0)" stroke-width="2" /><path d="M +75.30927073676139,52.72887051105499 L 77.0962179871276,51.408448815345764 " fill="rgb(0,0,0)" stroke="rgb(0,0,0)" stroke-width="2" /><path d="M +77.0962179871276,51.408448815345764 L 79.02061354834586,49.8679518699646 " fill="rgb(0,0,0)" stroke="rgb(0,0,0)" stroke-width="2" /><path d="M +79.02061354834586,49.8679518699646 L 81.08245742041618,48.217424750328064 " fill="rgb(0,0,0)" stroke="rgb(0,0,0)" stroke-width="2" /><path d="M +81.08245742041618,48.217424750328064 L 82.73195635993034,46.786972880363464 " fill="rgb(0,0,0)" stroke="rgb(0,0,0)" stroke-width="2" /><path d="M +82.73195635993034,46.786972880363464 L 84.38142549712211,45.466551184654236 " fill="rgb(0,0,0)" stroke="rgb(0,0,0)" stroke-width="2" /><path d="M +84.38142549712211,45.466551184654236 L 86.03092443663627,44.80634033679962 " fill="rgb(0,0,0)" stroke="rgb(0,0,0)" stroke-width="2" /><path d="M +86.03092443663627,44.80634033679962 L 86.58074748236686,44.25615966320038 " fill="rgb(0,0,0)" stroke="rgb(0,0,0)" stroke-width="2" /><path d="M +86.58074748236686,44.25615966320038 L 87.2680188389495,44.36618983745575 " fill="rgb(0,0,0)" stroke="rgb(0,0,0)" stroke-width="2" /><path d="M +87.2680188389495,44.36618983745575 L 87.68039357382804,44.69629526138306 " fill="rgb(0,0,0)" stroke="rgb(0,0,0)" stroke-width="2" /><path d="M +87.68039357382804,44.69629526138306 L 87.2680188389495,45.026400685310364 " fill="rgb(0,0,0)" stroke="rgb(0,0,0)" stroke-width="2" /><path d="M +87.2680188389495,45.026400685310364 L 87.40549695212394,46.12676203250885 " fill="rgb(0,0,0)" stroke="rgb(0,0,0)" stroke-width="2" /><path d="M +87.40549695212394,46.12676203250885 L 87.2680188389495,47.44718372821808 " fill="rgb(0,0,0)" stroke="rgb(0,0,0)" stroke-width="2" /><path d="M +87.2680188389495,47.44718372821808 L 86.30582105834037,48.76760542392731 " fill="rgb(0,0,0)" stroke="rgb(0,0,0)" stroke-width="2" /><path d="M +86.30582105834037,48.76760542392731 L 86.03092443663627,50.41813254356384 " fill="rgb(0,0,0)" stroke="rgb(0,0,0)" stroke-width="2" /><path d="M +86.03092443663627,50.41813254356384 L 86.30582105834037,52.06865966320038 " fill="rgb(0,0,0)" stroke="rgb(0,0,0)" stroke-width="2" /><path d="M +86.30582105834037,52.06865966320038 L 86.03092443663627,53.0589759349823 " fill="rgb(0,0,0)" stroke="rgb(0,0,0)" stroke-width="2" /><path d="M +86.03092443663627,53.0589759349823 L 85.75599801260978,53.829216957092285 " fill="rgb(0,0,0)" stroke="rgb(0,0,0)" stroke-width="2" /><path d="M +85.75599801260978,53.829216957092285 L 86.44329917151481,54.4894278049469 " fill="rgb(0,0,0)" stroke="rgb(0,0,0)" stroke-width="2" /><path d="M +86.44329917151481,54.4894278049469 L 87.54294526297599,54.92957830429077 " fill="rgb(0,0,0)" stroke="rgb(0,0,0)" stroke-width="2" /><path d="M +87.54294526297599,54.92957830429077 L 88.50514304358512,54.709503054618835 " fill="rgb(0,0,0)" stroke="rgb(0,0,0)" stroke-width="2" /><path d="M +88.50514304358512,54.709503054618835 L 90.01716386992484,54.15932238101959 " fill="rgb(0,0,0)" stroke="rgb(0,0,0)" stroke-width="2" /><path d="M +90.01716386992484,54.15932238101959 L 91.666662809439,52.72887051105499 " fill="rgb(0,0,0)" stroke="rgb(0,0,0)" stroke-width="2" /><path d="M +91.666662809439,52.72887051105499 L 93.59105837065727,51.07834339141846 " fill="rgb(0,0,0)" stroke="rgb(0,0,0)" stroke-width="2" /><path d="M +93.59105837065727,51.07834339141846 L 95.37800562102348,49.53784644603729 " fill="rgb(0,0,0)" stroke="rgb(0,0,0)" stroke-width="2" /><path d="M +95.37800562102348,49.53784644603729 L 96.8900264473632,48.217424750328064 " fill="rgb(0,0,0)" stroke="rgb(0,0,0)" stroke-width="2" /><path d="M +96.8900264473632,48.217424750328064 L 97.98967253882438,47.22710847854614 " fill="rgb(0,0,0)" stroke="rgb(0,0,0)" stroke-width="2" /><path d="M +97.98967253882438,47.22710847854614 L 98.67697369772941,46.6769278049469 " fill="rgb(0,0,0)" stroke="rgb(0,0,0)" stroke-width="2" /><path d="M +98.67697369772941,46.6769278049469 L 99.63917147833854,46.6769278049469 " fill="rgb(0,0,0)" stroke="rgb(0,0,0)" stroke-width="2" /><path d="M +99.63917147833854,46.6769278049469 L 99.63917147833854,46.6769278049469 " fill="rgb(0,0,0)" stroke="rgb(0,0,0)" stroke-width="2" /><path d="M +99.63917147833854,46.6769278049469 L 99.50172316748649,46.6769278049469 " fill="rgb(0,0,0)" stroke="rgb(0,0,0)" stroke-width="2" /><path d="M +99.50172316748649,46.6769278049469 L 99.36424505431205,46.786972880363464 " fill="rgb(0,0,0)" stroke="rgb(0,0,0)" stroke-width="2" /><path d="M +99.36424505431205,46.786972880363464 L 99.63917147833854,47.22710847854614 " fill="rgb(0,0,0)" stroke="rgb(0,0,0)" stroke-width="2" /><path d="M +99.63917147833854,47.22710847854614 L 99.63917147833854,47.22710847854614 " fill="rgb(0,0,0)" stroke="rgb(0,0,0)" stroke-width="2" /><path d="M +99.63917147833854,47.22710847854614 L 98.95187020301819,47.117078297014814 " fill="rgb(0,0,0)" stroke="rgb(0,0,0)" stroke-width="2" /><path d="M +98.95187020301819,47.117078297014814 L 99.36424493789673,47.44718372094212 " fill="rgb(0,0,0)" stroke="rgb(0,0,0)" stroke-width="2" /><path d="M +99.36424493789673,47.44718372094212 L 99.77661967277527,47.77728914486943 " fill="rgb(0,0,0)" stroke="rgb(0,0,0)" stroke-width="2" /><path d="M +99.77661967277527,47.77728914486943 L 99.63917136192322,47.77728914486943 " fill="rgb(0,0,0)" stroke="rgb(0,0,0)" stroke-width="2" /><path d="M +99.63917136192322,47.77728914486943 L 99.63917136192322,47.8873193191248 " fill="rgb(0,0,0)" stroke="rgb(0,0,0)" stroke-width="2" /><path d="M +99.63917136192322,47.8873193191248 L 99.91406798362732,48.217424743052106 " fill="rgb(0,0,0)" stroke="rgb(0,0,0)" stroke-width="2" /><path d="M +99.91406798362732,48.217424743052106 L 100.05154609680176,48.76760541665135 " fill="rgb(0,0,0)" stroke="rgb(0,0,0)" stroke-width="2" /><path d="M +100.05154609680176,48.76760541665135 L 99.91406798362732,49.537846438761335 " fill="rgb(0,0,0)" stroke="rgb(0,0,0)" stroke-width="2" /><path d="M +99.91406798362732,49.537846438761335 L 99.91406798362732,50.85826813447056 " fill="rgb(0,0,0)" stroke="rgb(0,0,0)" stroke-width="2" /><path d="M +99.91406798362732,50.85826813447056 L 99.36424493789673,51.95862948166905 " fill="rgb(0,0,0)" stroke="rgb(0,0,0)" stroke-width="2" /><path d="M +99.36424493789673,51.95862948166905 L 99.22679662704468,53.27905117737828 " fill="rgb(0,0,0)" stroke="rgb(0,0,0)" stroke-width="2" /><path d="M +99.22679662704468,53.27905117737828 L 99.22679662704468,54.59947287308751 " fill="rgb(0,0,0)" stroke="rgb(0,0,0)" stroke-width="2" /><path d="M +99.22679662704468,54.59947287308751 L 98.67697358131409,55.14965354668675 " fill="rgb(0,0,0)" stroke="rgb(0,0,0)" stroke-width="2" /><path d="M +98.67697358131409,55.14965354668675 L 98.95187020301819,55.47975897061406 " fill="rgb(0,0,0)" stroke="rgb(0,0,0)" stroke-width="2" /><path d="M +98.95187020301819,55.47975897061406 L 99.63917136192322,55.6998193191248 " fill="rgb(0,0,0)" stroke="rgb(0,0,0)" stroke-width="2" /><path d="M +99.63917136192322,55.6998193191248 L 100.05154609680176,55.25968372094212 " fill="rgb(0,0,0)" stroke="rgb(0,0,0)" stroke-width="2" /><path d="M +100.05154609680176,55.25968372094212 L 101.01374387741089,54.37939762341557 " fill="rgb(0,0,0)" stroke="rgb(0,0,0)" stroke-width="2" /><path d="M +101.01374387741089,54.37939762341557 L 102.8006911277771,52.94894575345097 " fill="rgb(0,0,0)" stroke="rgb(0,0,0)" stroke-width="2" /><path d="M +102.8006911277771,52.94894575345097 L 104.03778553009033,51.18837355839787 " fill="rgb(0,0,0)" stroke="rgb(0,0,0)" stroke-width="2" /><path d="M +104.03778553009033,51.18837355839787 L 106.23710751533508,49.86795186268864 " fill="rgb(0,0,0)" stroke="rgb(0,0,0)" stroke-width="2" /><path d="M +106.23710751533508,49.86795186268864 L 106.92437887191772,48.54753016697941 " fill="rgb(0,0,0)" stroke="rgb(0,0,0)" stroke-width="2" /><path d="M +106.92437887191772,48.54753016697941 L 108.57387781143188,48.54753016697941 " fill="rgb(0,0,0)" stroke="rgb(0,0,0)" stroke-width="2" /><path d="M +108.57387781143188,48.54753016697941 L 108.71132606407627,48.32746981846867 " fill="rgb(0,0,0)" stroke="rgb(0,0,0)" stroke-width="2" /><path d="M +108.71132606407627,48.32746981846867 L 109.12370079895481,48.65757524239598 " fill="rgb(0,0,0)" stroke="rgb(0,0,0)" stroke-width="2" /><path d="M +109.12370079895481,48.65757524239598 L 108.98625248810276,49.31778609025059 " fill="rgb(0,0,0)" stroke="rgb(0,0,0)" stroke-width="2" /><path d="M +108.98625248810276,49.31778609025059 L 109.53607553383335,50.96831320988713 " fill="rgb(0,0,0)" stroke="rgb(0,0,0)" stroke-width="2" /><path d="M +109.53607553383335,50.96831320988713 L 109.26114910980687,52.5087952541071 " fill="rgb(0,0,0)" stroke="rgb(0,0,0)" stroke-width="2" /><path d="M +109.26114910980687,52.5087952541071 L 109.53607553383335,54.2693674491602 " fill="rgb(0,0,0)" stroke="rgb(0,0,0)" stroke-width="2" /><path d="M +109.53607553383335,54.2693674491602 L 110.08589857956395,55.6998193191248 " fill="rgb(0,0,0)" stroke="rgb(0,0,0)" stroke-width="2" /><path d="M +110.08589857956395,55.6998193191248 L 110.77319973846897,56.36003016697941 " fill="rgb(0,0,0)" stroke="rgb(0,0,0)" stroke-width="2" /><path d="M +110.77319973846897,56.36003016697941 L 111.59791940590367,56.36003016697941 " fill="rgb(0,0,0)" stroke="rgb(0,0,0)" stroke-width="2" /><path d="M +111.59791940590367,56.36003016697941 L 113.93468970200047,56.13996981846867 " fill="rgb(0,0,0)" stroke="rgb(0,0,0)" stroke-width="2" /><path d="M +113.93468970200047,56.13996981846867 L 116.27145999809727,55.36971389519749 " fill="rgb(0,0,0)" stroke="rgb(0,0,0)" stroke-width="2" /><path d="M +116.27145999809727,55.36971389519749 L 118.88315671822056,53.82921694981633 " fill="rgb(0,0,0)" stroke="rgb(0,0,0)" stroke-width="2" /><path d="M +118.88315671822056,53.82921694981633 L 121.21992701431736,52.17868983017979 " fill="rgb(0,0,0)" stroke="rgb(0,0,0)" stroke-width="2" /><path d="M +121.21992701431736,52.17868983017979 L 123.83159393211827,50.418132536287885 " fill="rgb(0,0,0)" stroke="rgb(0,0,0)" stroke-width="2" /><path d="M +123.83159393211827,50.418132536287885 L 126.16836422821507,48.87763559090672 " fill="rgb(0,0,0)" stroke="rgb(0,0,0)" stroke-width="2" /><path d="M +126.16836422821507,48.87763559090672 L 127.81786316772923,47.227108471270185 " fill="rgb(0,0,0)" stroke="rgb(0,0,0)" stroke-width="2" /><path d="M +127.81786316772923,47.227108471270185 L 129.60481041809544,46.236792199488264 " fill="rgb(0,0,0)" stroke="rgb(0,0,0)" stroke-width="2" /><path d="M +129.60481041809544,46.236792199488264 L 130.15463346382603,45.68661152588902 " fill="rgb(0,0,0)" stroke="rgb(0,0,0)" stroke-width="2" /><path d="M +130.15463346382603,45.68661152588902 L 129.60481041809544,45.46655117737828 " fill="rgb(0,0,0)" stroke="rgb(0,0,0)" stroke-width="2" /><path d="M +129.60481041809544,45.46655117737828 L 129.60481041809544,45.46655117737828 " fill="rgb(0,0,0)" stroke="rgb(0,0,0)" stroke-width="2" /><path d="M +129.60481041809544,45.46655117737828 L 128.78006094833836,45.57658135163365 " fill="rgb(0,0,0)" stroke="rgb(0,0,0)" stroke-width="2" /><path d="M +128.78006094833836,45.57658135163365 L 127.54293674370274,46.12676202523289 " fill="rgb(0,0,0)" stroke="rgb(0,0,0)" stroke-width="2" /><path d="M +127.54293674370274,46.12676202523289 L 126.16836422821507,47.44718372094212 " fill="rgb(0,0,0)" stroke="rgb(0,0,0)" stroke-width="2" /><path d="M +126.16836422821507,47.44718372094212 L 124.7937917127274,49.537846438761335 " fill="rgb(0,0,0)" stroke="rgb(0,0,0)" stroke-width="2" /><path d="M +124.7937917127274,49.537846438761335 L 123.28177088638768,51.62852405774174 " fill="rgb(0,0,0)" stroke="rgb(0,0,0)" stroke-width="2" /><path d="M +123.28177088638768,51.62852405774174 L 122.4570214166306,53.82921694981633 " fill="rgb(0,0,0)" stroke="rgb(0,0,0)" stroke-width="2" /><path d="M +122.4570214166306,53.82921694981633 L 121.76975017646328,55.809864394541364 " fill="rgb(0,0,0)" stroke="rgb(0,0,0)" stroke-width="2" /><path d="M +121.76975017646328,55.809864394541364 L 121.49482375243679,56.69013559090672 " fill="rgb(0,0,0)" stroke="rgb(0,0,0)" stroke-width="2" /><path d="M +121.49482375243679,56.69013559090672 L 122.04467660048977,56.800180666323286 " fill="rgb(0,0,0)" stroke="rgb(0,0,0)" stroke-width="2" /><path d="M +122.04467660048977,56.800180666323286 L 123.55669742682949,56.13996981846867 " fill="rgb(0,0,0)" stroke="rgb(0,0,0)" stroke-width="2" /><path d="M +123.55669742682949,56.13996981846867 L 125.20616656402126,54.59947287308751 " fill="rgb(0,0,0)" stroke="rgb(0,0,0)" stroke-width="2" /><path d="M +125.20616656402126,54.59947287308751 L 127.13056212523952,52.728870503779035 " fill="rgb(0,0,0)" stroke="rgb(0,0,0)" stroke-width="2" /><path d="M +127.13056212523952,52.728870503779035 L 128.5051346407272,50.63820778595982 " fill="rgb(0,0,0)" stroke="rgb(0,0,0)" stroke-width="2" /><path d="M +128.5051346407272,50.63820778595982 L 130.2920818910934,48.987680666323286 " fill="rgb(0,0,0)" stroke="rgb(0,0,0)" stroke-width="2" /><path d="M +130.2920818910934,48.987680666323286 L 131.52920609572902,47.77728914486943 " fill="rgb(0,0,0)" stroke="rgb(0,0,0)" stroke-width="2" /><path d="M +131.52920609572902,47.77728914486943 L 132.6288521871902,47.44718372094212 " fill="rgb(0,0,0)" stroke="rgb(0,0,0)" stroke-width="2" /><path d="M +132.6288521871902,47.44718372094212 L 133.45360165694728,47.44718372094212 " fill="rgb(0,0,0)" stroke="rgb(0,0,0)" stroke-width="2" /><path d="M +133.45360165694728,47.44718372094212 L 134.41579943755642,47.8873193191248 " fill="rgb(0,0,0)" stroke="rgb(0,0,0)" stroke-width="2" /><path d="M +134.41579943755642,47.8873193191248 L 134.82817417243496,48.76760541665135 " fill="rgb(0,0,0)" stroke="rgb(0,0,0)" stroke-width="2" /><path d="M +134.82817417243496,48.76760541665135 L 135.37799721816555,50.308102362032514 " fill="rgb(0,0,0)" stroke="rgb(0,0,0)" stroke-width="2" /><path d="M +135.37799721816555,50.308102362032514 L 136.0652685747482,52.39876507985173 " fill="rgb(0,0,0)" stroke="rgb(0,0,0)" stroke-width="2" /><path d="M +136.0652685747482,52.39876507985173 L 136.34019499877468,55.039608471270185 " fill="rgb(0,0,0)" stroke="rgb(0,0,0)" stroke-width="2" /><path d="M +136.34019499877468,55.039608471270185 L 135.7903719530441,57.57042168843327 " fill="rgb(0,0,0)" stroke="rgb(0,0,0)" stroke-width="2" /><path d="M +135.7903719530441,57.57042168843327 L 135.92782020568848,60.76144575345097 " fill="rgb(0,0,0)" stroke="rgb(0,0,0)" stroke-width="2" /><path d="M +135.92782020568848,60.76144575345097 L 135.1030707359314,63.622364394541364 " fill="rgb(0,0,0)" stroke="rgb(0,0,0)" stroke-width="2" /><path d="M +135.1030707359314,63.622364394541364 L 134.14087295532227,66.48326813447056 " fill="rgb(0,0,0)" stroke="rgb(0,0,0)" stroke-width="2" /><path d="M +134.14087295532227,66.48326813447056 L 132.7663004398346,69.12411152588902 " fill="rgb(0,0,0)" stroke="rgb(0,0,0)" stroke-width="2" /><path d="M +132.7663004398346,69.12411152588902 L 130.70445656776428,70.88468372094212 " fill="rgb(0,0,0)" stroke="rgb(0,0,0)" stroke-width="2" /><path d="M +130.70445656776428,70.88468372094212 L 129.0549874305725,72.42518066632329 " fill="rgb(0,0,0)" stroke="rgb(0,0,0)" stroke-width="2" /><path d="M +129.0549874305725,72.42518066632329 L 126.30584239959717,72.64524101483403 " fill="rgb(0,0,0)" stroke="rgb(0,0,0)" stroke-width="2" /><path d="M +126.30584239959717,72.64524101483403 L 125.2061665058136,72.42518066632329 " fill="rgb(0,0,0)" stroke="rgb(0,0,0)" stroke-width="2" /><path d="M +125.2061665058136,72.42518066632329 L 124.79379177093506,71.43486439454136 " fill="rgb(0,0,0)" stroke="rgb(0,0,0)" stroke-width="2" /><path d="M +124.79379177093506,71.43486439454136 L 125.06871819496155,69.34418677556096 " fill="rgb(0,0,0)" stroke="rgb(0,0,0)" stroke-width="2" /><path d="M +125.06871819496155,69.34418677556096 L 126.58073902130127,66.7033433841425 " fill="rgb(0,0,0)" stroke="rgb(0,0,0)" stroke-width="2" /><path d="M +126.58073902130127,66.7033433841425 L 129.19243574142456,63.622364394541364 " fill="rgb(0,0,0)" stroke="rgb(0,0,0)" stroke-width="2" /><path d="M +129.19243574142456,63.622364394541364 L 133.45360159873962,59.661084406252485 " fill="rgb(0,0,0)" stroke="rgb(0,0,0)" stroke-width="2" /><path d="M +133.45360159873962,59.661084406252485 L 137.98969388008118,56.029924743052106 " fill="rgb(0,0,0)" stroke="rgb(0,0,0)" stroke-width="2" /><path d="M +137.98969388008118,56.029924743052106 L 142.66323447227478,53.71918677556096 " fill="rgb(0,0,0)" stroke="rgb(0,0,0)" stroke-width="2" /><path d="M +142.66323447227478,53.71918677556096 L 145.41234970092773,52.28873490559636 " fill="rgb(0,0,0)" stroke="rgb(0,0,0)" stroke-width="2" /><path d="M +145.41234970092773,52.28873490559636 L 147.336745262146,52.39876507985173 " fill="rgb(0,0,0)" stroke="rgb(0,0,0)" stroke-width="2" /><path d="M 94.96563449501991,34.13292168843327 " fill="rgb(0,0,0)" stroke="rgb(0,0,0)" stroke-width="2" /><path d="M +94.96563449501991,34.13292168843327 L 94.27833321969956,33.47271084057866 " fill="rgb(0,0,0)" stroke="rgb(0,0,0)" stroke-width="2" /><path d="M +94.27833321969956,33.47271084057866 L 94.00343659799546,32.372364394541364 " fill="rgb(0,0,0)" stroke="rgb(0,0,0)" stroke-width="2" /><path d="M +94.00343659799546,32.372364394541364 L 94.96563437860459,32.15228914486943 " fill="rgb(0,0,0)" stroke="rgb(0,0,0)" stroke-width="2" /><path d="M +94.96563437860459,32.15228914486943 L 96.61510351579636,31.272003047342878 " fill="rgb(0,0,0)" stroke="rgb(0,0,0)" stroke-width="2" /><path d="M 172.07902434747666,59.88115965592442 " fill="rgb(0,0,0)" stroke="rgb(0,0,0)" stroke-width="2" /><path d="M +172.07902434747666,59.88115965592442 L 173.59104517381638,59.110918633814435 " fill="rgb(0,0,0)" stroke="rgb(0,0,0)" stroke-width="2" /><path d="M +173.59104517381638,59.110918633814435 L 174.828169378452,57.68045186268864 " fill="rgb(0,0,0)" stroke="rgb(0,0,0)" stroke-width="2" /><path d="M +174.828169378452,57.68045186268864 L 176.75256493967026,55.47975897061406 " fill="rgb(0,0,0)" stroke="rgb(0,0,0)" stroke-width="2" /><path d="M +176.75256493967026,55.47975897061406 L 179.63915828149766,53.16900610196171 " fill="rgb(0,0,0)" stroke="rgb(0,0,0)" stroke-width="2" /><path d="M +179.63915828149766,53.16900610196171 L 181.56355384271592,50.308102362032514 " fill="rgb(0,0,0)" stroke="rgb(0,0,0)" stroke-width="2" /><path d="M +181.56355384271592,50.308102362032514 L 183.90032413881272,47.44718372094212 " fill="rgb(0,0,0)" stroke="rgb(0,0,0)" stroke-width="2" /><path d="M +183.90032413881272,47.44718372094212 L 185.82474950235337,44.25615965592442 " fill="rgb(0,0,0)" stroke="rgb(0,0,0)" stroke-width="2" /><path d="M +185.82474950235337,44.25615965592442 L 187.6116669503972,41.39524101483403 " fill="rgb(0,0,0)" stroke="rgb(0,0,0)" stroke-width="2" /><path d="M +187.6116669503972,41.39524101483403 L 189.53606251161546,38.31426202523289 " fill="rgb(0,0,0)" stroke="rgb(0,0,0)" stroke-width="2" /><path d="M +189.53606251161546,38.31426202523289 L 190.49829009454697,35.34331320988713 " fill="rgb(0,0,0)" stroke="rgb(0,0,0)" stroke-width="2" /><path d="M +190.49829009454697,35.34331320988713 L 191.04811314027756,33.03257524239598 " fill="rgb(0,0,0)" stroke="rgb(0,0,0)" stroke-width="2" /><path d="M +191.04811314027756,33.03257524239598 L 191.32300976198167,30.94189762341557 " fill="rgb(0,0,0)" stroke="rgb(0,0,0)" stroke-width="2" /><path d="M +191.32300976198167,30.94189762341557 L 192.0102811185643,30.06161152588902 " fill="rgb(0,0,0)" stroke="rgb(0,0,0)" stroke-width="2" /><path d="M +192.0102811185643,30.06161152588902 L 190.77318671625108,29.0712952541071 " fill="rgb(0,0,0)" stroke="rgb(0,0,0)" stroke-width="2" /><path d="M +190.77318671625108,29.0712952541071 L 190.22336367052048,28.96126507257577 " fill="rgb(0,0,0)" stroke="rgb(0,0,0)" stroke-width="2" /><path d="M +190.22336367052048,28.96126507257577 L 189.3986142007634,29.181340322247706 " fill="rgb(0,0,0)" stroke="rgb(0,0,0)" stroke-width="2" /><path d="M +189.3986142007634,29.181340322247706 L 187.88659337442368,30.171656594029628 " fill="rgb(0,0,0)" stroke="rgb(0,0,0)" stroke-width="2" /><path d="M +187.88659337442368,30.171656594029628 L 187.0618439046666,32.37236438726541 " fill="rgb(0,0,0)" stroke="rgb(0,0,0)" stroke-width="2" /><path d="M +187.0618439046666,32.37236438726541 L 185.0000000325963,34.9031627032673 " fill="rgb(0,0,0)" stroke="rgb(0,0,0)" stroke-width="2" /><path d="M +185.0000000325963,34.9031627032673 L 183.48797920625657,38.424292192212306 " fill="rgb(0,0,0)" stroke="rgb(0,0,0)" stroke-width="2" /><path d="M +183.48797920625657,38.424292192212306 L 182.1134066907689,42.49560235475656 " fill="rgb(0,0,0)" stroke="rgb(0,0,0)" stroke-width="2" /><path d="M +182.1134066907689,42.49560235475656 L 181.15120891015977,46.89700304006692 " fill="rgb(0,0,0)" stroke="rgb(0,0,0)" stroke-width="2" /><path d="M +181.15120891015977,46.89700304006692 L 180.0515330163762,51.18837355112191 " fill="rgb(0,0,0)" stroke="rgb(0,0,0)" stroke-width="2" /><path d="M +180.0515330163762,51.18837355112191 L 179.91408470552415,54.929578289738856 " fill="rgb(0,0,0)" stroke="rgb(0,0,0)" stroke-width="2" /><path d="M +179.91408470552415,54.929578289738856 L 180.46390775125474,57.57042168115731 " fill="rgb(0,0,0)" stroke="rgb(0,0,0)" stroke-width="2" /><path d="M +180.46390775125474,57.57042168115731 L 181.28865722101182,58.89084337686654 " fill="rgb(0,0,0)" stroke="rgb(0,0,0)" stroke-width="2" /><path d="M +181.28865722101182,58.89084337686654 L 182.388303312473,59.11091862653848 " fill="rgb(0,0,0)" stroke="rgb(0,0,0)" stroke-width="2" /><path d="M +182.388303312473,59.11091862653848 L 184.4501769868657,59.11091862653848 " fill="rgb(0,0,0)" stroke="rgb(0,0,0)" stroke-width="2" /><path d="M +184.4501769868657,59.11091862653848 L 186.37457254808396,58.3406627032673 " fill="rgb(0,0,0)" stroke="rgb(0,0,0)" stroke-width="2" /><path d="M +186.37457254808396,58.3406627032673 L 188.02404168527573,56.58010540937539 " fill="rgb(0,0,0)" stroke="rgb(0,0,0)" stroke-width="2" /><path d="M +188.02404168527573,56.58010540937539 L 189.53606251161546,54.15932236646768 " fill="rgb(0,0,0)" stroke="rgb(0,0,0)" stroke-width="2" /><path d="M +189.53606251161546,54.15932236646768 L 191.59793618600816,51.738554224721156 " fill="rgb(0,0,0)" stroke="rgb(0,0,0)" stroke-width="2" /><path d="M +191.59793618600816,51.738554224721156 L 192.28523734491318,49.317786082974635 " fill="rgb(0,0,0)" stroke="rgb(0,0,0)" stroke-width="2" /><path d="M +192.28523734491318,49.317786082974635 L 192.42268559755757,47.6672589633381 " fill="rgb(0,0,0)" stroke="rgb(0,0,0)" stroke-width="2" /><path d="M +192.42268559755757,47.6672589633381 L 192.01028106035665,46.56689761613961 " fill="rgb(0,0,0)" stroke="rgb(0,0,0)" stroke-width="2" /><path d="M +192.01028106035665,46.56689761613961 L 191.0481130820699,46.126762017956935 " fill="rgb(0,0,0)" stroke="rgb(0,0,0)" stroke-width="2" /><path d="M +191.0481130820699,46.126762017956935 L 191.1855613347143,46.01671693526441 " fill="rgb(0,0,0)" stroke="rgb(0,0,0)" stroke-width="2" /><path d="M +191.1855613347143,46.01671693526441 L 190.9106349106878,46.12676201068098 " fill="rgb(0,0,0)" stroke="rgb(0,0,0)" stroke-width="2" /><path d="M +190.9106349106878,46.12676201068098 L 190.77318659983575,46.456867434608284 " fill="rgb(0,0,0)" stroke="rgb(0,0,0)" stroke-width="2" /><path d="M +190.77318659983575,46.456867434608284 L 190.77318659983575,47.22710845671827 " fill="rgb(0,0,0)" stroke="rgb(0,0,0)" stroke-width="2" /><path d="M +190.77318659983575,47.22710845671827 L 191.46048775874078,47.99736437998945 " fill="rgb(0,0,0)" stroke="rgb(0,0,0)" stroke-width="2" /><path d="M +191.46048775874078,47.99736437998945 L 191.46048775874078,48.65757522784406 " fill="rgb(0,0,0)" stroke="rgb(0,0,0)" stroke-width="2" /><path d="M +191.46048775874078,48.65757522784406 L 191.59793601138517,49.31778607569868 " fill="rgb(0,0,0)" stroke="rgb(0,0,0)" stroke-width="2" /><path d="M +191.59793601138517,49.31778607569868 L 191.87283263308927,49.86795184813673 " fill="rgb(0,0,0)" stroke="rgb(0,0,0)" stroke-width="2" /><path d="M +191.87283263308927,49.86795184813673 L 192.97247872455046,50.96831319533521 " fill="rgb(0,0,0)" stroke="rgb(0,0,0)" stroke-width="2" /><path d="M +192.97247872455046,50.96831319533521 L 193.65977988345549,51.62852404318983 " fill="rgb(0,0,0)" stroke="rgb(0,0,0)" stroke-width="2" /><path d="M +193.65977988345549,51.62852404318983 L 194.34708104236051,52.28873489104444 " fill="rgb(0,0,0)" stroke="rgb(0,0,0)" stroke-width="2" /><path d="M +194.34708104236051,52.28873489104444 L 195.85907206637785,52.948945738899056 " fill="rgb(0,0,0)" stroke="rgb(0,0,0)" stroke-width="2" /><path d="M +195.85907206637785,52.948945738899056 L 197.78352723224089,53.1690060874098 " fill="rgb(0,0,0)" stroke="rgb(0,0,0)" stroke-width="2" /><path d="M +197.78352723224089,53.1690060874098 L 199.15806994540617,53.05897590587847 " fill="rgb(0,0,0)" stroke="rgb(0,0,0)" stroke-width="2" /><path d="M +199.15806994540617,53.05897590587847 L 200.80756888492033,52.61884030769579 " fill="rgb(0,0,0)" stroke="rgb(0,0,0)" stroke-width="2" /><path d="M +200.80756888492033,52.61884030769579 L 202.59451613528654,51.95862945984118 " fill="rgb(0,0,0)" stroke="rgb(0,0,0)" stroke-width="2" /><path d="M +202.59451613528654,51.95862945984118 L 204.65636000735685,51.18837353657 " fill="rgb(0,0,0)" stroke="rgb(0,0,0)" stroke-width="2" /><path d="M +204.65636000735685,51.18837353657 L 206.5807555685751,50.41813251446001 " fill="rgb(0,0,0)" stroke="rgb(0,0,0)" stroke-width="2" /><path d="M +206.5807555685751,50.41813251446001 L 207.9552982817404,49.53784641693346 " fill="rgb(0,0,0)" stroke="rgb(0,0,0)" stroke-width="2" /><path d="M +207.9552982817404,49.53784641693346 L 208.78004775149748,48.54753014515154 " fill="rgb(0,0,0)" stroke="rgb(0,0,0)" stroke-width="2" /><path d="M +208.78004775149748,48.54753014515154 L 208.91749600414187,48.21742472122423 " fill="rgb(0,0,0)" stroke="rgb(0,0,0)" stroke-width="2" /><path d="M +208.91749600414187,48.21742472122423 L 208.50515107158571,47.99736437271349 " fill="rgb(0,0,0)" stroke="rgb(0,0,0)" stroke-width="2" /><path d="M +208.50515107158571,47.99736437271349 L 208.09280613902956,47.777289123041555 " fill="rgb(0,0,0)" stroke="rgb(0,0,0)" stroke-width="2" /><path d="M +208.09280613902956,47.777289123041555 L 207.4055048637092,47.55721387336962 " fill="rgb(0,0,0)" stroke="rgb(0,0,0)" stroke-width="2" /><path d="M +207.4055048637092,47.55721387336962 L 206.30585877224803,47.44718369183829 " fill="rgb(0,0,0)" stroke="rgb(0,0,0)" stroke-width="2" /><path d="M +206.30585877224803,47.44718369183829 L 205.48110930249095,47.7772891157656 " fill="rgb(0,0,0)" stroke="rgb(0,0,0)" stroke-width="2" /><path d="M +205.48110930249095,47.7772891157656 L 203.69416205212474,48.217424713948276 " fill="rgb(0,0,0)" stroke="rgb(0,0,0)" stroke-width="2" /><path d="M +203.69416205212474,48.217424713948276 L 203.0068607768044,49.097710811474826 " fill="rgb(0,0,0)" stroke="rgb(0,0,0)" stroke-width="2" /><path d="M +203.0068607768044,49.097710811474826 L 201.35736183729023,50.308102332928684 " fill="rgb(0,0,0)" stroke="rgb(0,0,0)" stroke-width="2" /><path d="M +201.35736183729023,50.308102332928684 L 200.120267434977,51.848584377148654 " fill="rgb(0,0,0)" stroke="rgb(0,0,0)" stroke-width="2" /><path d="M +200.120267434977,51.848584377148654 L 199.43296615965664,53.609156572201755 " fill="rgb(0,0,0)" stroke="rgb(0,0,0)" stroke-width="2" /><path d="M +199.43296615965664,53.609156572201755 L 199.0206212271005,55.5897891157656 " fill="rgb(0,0,0)" stroke="rgb(0,0,0)" stroke-width="2" /><path d="M +199.0206212271005,55.5897891157656 L 198.4707683790475,57.79049690900138 " fill="rgb(0,0,0)" stroke="rgb(0,0,0)" stroke-width="2" /><path d="M +198.4707683790475,57.79049690900138 L 198.4707683790475,59.99118980107596 " fill="rgb(0,0,0)" stroke="rgb(0,0,0)" stroke-width="2" /><path d="M +198.4707683790475,59.99118980107596 L 199.43296615965664,62.08186742005637 " fill="rgb(0,0,0)" stroke="rgb(0,0,0)" stroke-width="2" /><path d="M +199.43296615965664,62.08186742005637 L 199.98281900770962,63.622364365437534 " fill="rgb(0,0,0)" stroke="rgb(0,0,0)" stroke-width="2" /><path d="M +199.98281900770962,63.622364365437534 L 201.76976625807583,64.72271081147483 " fill="rgb(0,0,0)" stroke="rgb(0,0,0)" stroke-width="2" /><path d="M +201.76976625807583,64.72271081147483 L 203.9690584409982,65.1628464096575 " fill="rgb(0,0,0)" stroke="rgb(0,0,0)" stroke-width="2" /><path d="M +203.9690584409982,65.1628464096575 L 206.5807551611215,64.61268063721946 " fill="rgb(0,0,0)" stroke="rgb(0,0,0)" stroke-width="2" /><path d="M +206.5807551611215,64.61268063721946 L 210.01720135100186,63.51231929002097 " fill="rgb(0,0,0)" stroke="rgb(0,0,0)" stroke-width="2" /><path d="M +210.01720135100186,63.51231929002097 L 213.0412430036813,61.531686746457126 " fill="rgb(0,0,0)" stroke="rgb(0,0,0)" stroke-width="2" /><path d="M +213.0412430036813,61.531686746457126 L 216.06528465636075,58.89084335503867 " fill="rgb(0,0,0)" stroke="rgb(0,0,0)" stroke-width="2" /><path d="M +216.06528465636075,58.89084335503867 L 219.22677461989224,55.69981929002097 " fill="rgb(0,0,0)" stroke="rgb(0,0,0)" stroke-width="2" /><path d="M +219.22677461989224,55.69981929002097 L 221.97591965086758,52.288734876492526 " fill="rgb(0,0,0)" stroke="rgb(0,0,0)" stroke-width="2" /><path d="M +221.97591965086758,52.288734876492526 L 224.45016806013882,49.2077409857302 " fill="rgb(0,0,0)" stroke="rgb(0,0,0)" stroke-width="2" /><path d="M +224.45016806013882,49.2077409857302 L 226.92441646941006,46.0167169207125 " fill="rgb(0,0,0)" stroke="rgb(0,0,0)" stroke-width="2" /><path d="M +226.92441646941006,46.0167169207125 L 228.57385580427945,42.715662681439426 " fill="rgb(0,0,0)" stroke="rgb(0,0,0)" stroke-width="2" /><path d="M +228.57385580427945,42.715662681439426 L 230.91065590269864,39.74471386609366 " fill="rgb(0,0,0)" stroke="rgb(0,0,0)" stroke-width="2" /><path d="M +230.91065590269864,39.74471386609366 L 231.73540537245572,36.663734876492526 " fill="rgb(0,0,0)" stroke="rgb(0,0,0)" stroke-width="2" /><path d="M +231.73540537245572,36.663734876492526 L 232.28519861586392,34.02289148507407 " fill="rgb(0,0,0)" stroke="rgb(0,0,0)" stroke-width="2" /><path d="M +232.28519861586392,34.02289148507407 L 232.97249977476895,32.04225894151023 " fill="rgb(0,0,0)" stroke="rgb(0,0,0)" stroke-width="2" /><path d="M +232.97249977476895,32.04225894151023 L 232.5601548422128,30.83186742005637 " fill="rgb(0,0,0)" stroke="rgb(0,0,0)" stroke-width="2" /><path d="M +232.5601548422128,30.83186742005637 L 231.73540537245572,30.171656572201755 " fill="rgb(0,0,0)" stroke="rgb(0,0,0)" stroke-width="2" /><path d="M +231.73540537245572,30.171656572201755 L 230.91065590269864,29.731506072857883 " fill="rgb(0,0,0)" stroke="rgb(0,0,0)" stroke-width="2" /><path d="M +230.91065590269864,29.731506072857883 L 230.08590643294156,29.95158132252982 " fill="rgb(0,0,0)" stroke="rgb(0,0,0)" stroke-width="2" /><path d="M +230.08590643294156,29.95158132252982 L 228.57385580427945,30.391716920712497 " fill="rgb(0,0,0)" stroke="rgb(0,0,0)" stroke-width="2" /><path d="M +228.57385580427945,30.391716920712497 L 227.19931309111416,31.272003018239047 " fill="rgb(0,0,0)" stroke="rgb(0,0,0)" stroke-width="2" /><path d="M +227.19931309111416,31.272003018239047 L 225.96221868880093,33.14260538754752 " fill="rgb(0,0,0)" stroke="rgb(0,0,0)" stroke-width="2" /><path d="M +225.96221868880093,33.14260538754752 L 225.0000209081918,35.45334335503867 " fill="rgb(0,0,0)" stroke="rgb(0,0,0)" stroke-width="2" /><path d="M +225.0000209081918,35.45334335503867 L 224.31271963287145,38.2042169207125 " fill="rgb(0,0,0)" stroke="rgb(0,0,0)" stroke-width="2" /><path d="M +224.31271963287145,38.2042169207125 L 223.76286678481847,41.50528606114676 " fill="rgb(0,0,0)" stroke="rgb(0,0,0)" stroke-width="2" /><path d="M +223.76286678481847,41.50528606114676 L 222.9381173150614,45.13644572434714 " fill="rgb(0,0,0)" stroke="rgb(0,0,0)" stroke-width="2" /><path d="M +222.9381173150614,45.13644572434714 L 222.1133678453043,48.87763556180289 " fill="rgb(0,0,0)" stroke="rgb(0,0,0)" stroke-width="2" /><path d="M +222.1133678453043,48.87763556180289 L 221.8384712236002,52.50879522500327 " fill="rgb(0,0,0)" stroke="rgb(0,0,0)" stroke-width="2" /><path d="M +221.8384712236002,52.50879522500327 L 221.28867786377668,55.69981929002097 " fill="rgb(0,0,0)" stroke="rgb(0,0,0)" stroke-width="2" /><path d="M +221.28867786377668,55.69981929002097 L 221.56357448548079,58.56073793111136 " fill="rgb(0,0,0)" stroke="rgb(0,0,0)" stroke-width="2" /><path d="M +221.56357448548079,58.56073793111136 L 221.56357448548079,60.2112650507479 " fill="rgb(0,0,0)" stroke="rgb(0,0,0)" stroke-width="2" /><path d="M +221.56357448548079,60.2112650507479 L 222.66322057694197,61.20158132252982 " fill="rgb(0,0,0)" stroke="rgb(0,0,0)" stroke-width="2" /><path d="M +222.66322057694197,61.20158132252982 L 224.03782289475203,60.98150607285788 " fill="rgb(0,0,0)" stroke="rgb(0,0,0)" stroke-width="2" /><path d="M +224.03782289475203,60.98150607285788 L 225.9622184559703,59.661084377148654 " fill="rgb(0,0,0)" stroke="rgb(0,0,0)" stroke-width="2" /><path d="M +225.9622184559703,59.661084377148654 L 228.2989589497447,57.46039148507407 " fill="rgb(0,0,0)" stroke="rgb(0,0,0)" stroke-width="2" /><path d="M +228.2989589497447,57.46039148507407 L 231.59795682877302,55.039608442166355 " fill="rgb(0,0,0)" stroke="rgb(0,0,0)" stroke-width="2" /><path d="M +231.59795682877302,55.039608442166355 L 234.0721456333995,52.50879522500327 " fill="rgb(0,0,0)" stroke="rgb(0,0,0)" stroke-width="2" /><path d="M +234.0721456333995,52.50879522500327 L 236.68384235352278,50.74823793111136 " fill="rgb(0,0,0)" stroke="rgb(0,0,0)" stroke-width="2" /><path d="M +236.68384235352278,50.74823793111136 L 238.7456862255931,49.75792165932944 " fill="rgb(0,0,0)" stroke="rgb(0,0,0)" stroke-width="2" /><path d="M +238.7456862255931,49.75792165932944 L 239.57043569535017,49.31778606114676 " fill="rgb(0,0,0)" stroke="rgb(0,0,0)" stroke-width="2" /><path d="M +239.57043569535017,49.31778606114676 L 240.5326334759593,49.86795183358481 " fill="rgb(0,0,0)" stroke="rgb(0,0,0)" stroke-width="2" /><path d="M +240.5326334759593,49.86795183358481 L 240.8075300976634,51.18837352929404 " fill="rgb(0,0,0)" stroke="rgb(0,0,0)" stroke-width="2" /><path d="M +240.8075300976634,51.18837352929404 L 240.67008178681135,53.16900607285788 " fill="rgb(0,0,0)" stroke="rgb(0,0,0)" stroke-width="2" /><path d="M +240.67008178681135,53.16900607285788 L 240.94503801316023,55.47975894151023 " fill="rgb(0,0,0)" stroke="rgb(0,0,0)" stroke-width="2" /><path d="M +240.94503801316023,55.47975894151023 L 240.5326334759593,57.57042165932944 " fill="rgb(0,0,0)" stroke="rgb(0,0,0)" stroke-width="2" /><path d="M +240.5326334759593,57.57042165932944 L 240.94503801316023,59.44102402863791 " fill="rgb(0,0,0)" stroke="rgb(0,0,0)" stroke-width="2" /><path d="M +240.94503801316023,59.44102402863791 L 241.35738294571638,60.76144572434714 " fill="rgb(0,0,0)" stroke="rgb(0,0,0)" stroke-width="2" /><path d="M +241.35738294571638,60.76144572434714 L 242.3195807263255,61.20158132252982 " fill="rgb(0,0,0)" stroke="rgb(0,0,0)" stroke-width="2" /></svg>