<?xml version="1.0" encoding="utf-8" ?>
<svg baseProfile="full" height="108.97885564627359" version="1.1" width="331.78692859364673" xmlns="http://www.w3.org/2000/svg" xmlns:ev="http://www.w3.org/2001/xml-events" xmlns:xlink="http://www.w3.org/1999/xlink"><defs /><rect fill="white" height="108.97885564627359" width="331.78692859364673" x="0" y="0" /><path d="M 25.549837946891785,52.83888582052896 " fill="rgb(0,0,0)" stroke="rgb(0,0,0)" stroke-width="2" /><path d="M +25.549837946891785,52.83888582052896 L 25.27492642402649,52.398765123507474 " fill="rgb(0,0,0)" stroke="rgb(0,0,0)" stroke-width="2" /><path d="M +25.27492642402649,52.398765123507474 L 25.0,52.398765123507474 " fill="rgb(0,0,0)" stroke="rgb(0,0,0)" stroke-width="2" /><path d="M +25.0,52.398765123507474 L 25.137463270220906,52.06867460074136 " fill="rgb(0,0,0)" stroke="rgb(0,0,0)" stroke-width="2" /><path d="M +25.137463270220906,52.06867460074136 L 25.27492654044181,51.51846412481973 " fill="rgb(0,0,0)" stroke="rgb(0,0,0)" stroke-width="2" /><path d="M +25.27492654044181,51.51846412481973 L 25.824749586172402,50.63822273077676 " fill="rgb(0,0,0)" stroke="rgb(0,0,0)" stroke-width="2" /><path d="M +25.824749586172402,50.63822273077676 L 26.649484154768288,50.30807260336587 " fill="rgb(0,0,0)" stroke="rgb(0,0,0)" stroke-width="2" /><path d="M +26.649484154768288,50.30807260336587 L 28.4364314051345,49.86795190634439 " fill="rgb(0,0,0)" stroke="rgb(0,0,0)" stroke-width="2" /><path d="M +28.4364314051345,49.86795190634439 L 30.085915443487465,49.86795190634439 " fill="rgb(0,0,0)" stroke="rgb(0,0,0)" stroke-width="2" /><path d="M +30.085915443487465,49.86795190634439 L 32.01031100470573,49.86795190634439 " fill="rgb(0,0,0)" stroke="rgb(0,0,0)" stroke-width="2" /><path d="M +32.01031100470573,49.86795190634439 L 33.93470656592399,50.41810277762124 " fill="rgb(0,0,0)" stroke="rgb(0,0,0)" stroke-width="2" /><path d="M +33.93470656592399,50.41810277762124 L 35.859117028303444,51.40843395056436 " fill="rgb(0,0,0)" stroke="rgb(0,0,0)" stroke-width="2" /><path d="M +35.859117028303444,51.40843395056436 L 37.50860106665641,50.8582830792875 " fill="rgb(0,0,0)" stroke="rgb(0,0,0)" stroke-width="2" /><path d="M +37.50860106665641,50.8582830792875 L 39.15808510500938,53.0589461690397 " fill="rgb(0,0,0)" stroke="rgb(0,0,0)" stroke-width="2" /><path d="M +39.15808510500938,53.0589461690397 L 40.6701059313491,56.25000003637979 " fill="rgb(0,0,0)" stroke="rgb(0,0,0)" stroke-width="2" /><path d="M +40.6701059313491,56.25000003637979 L 41.49485540110618,58.890843427798245 " fill="rgb(0,0,0)" stroke="rgb(0,0,0)" stroke-width="2" /><path d="M +41.49485540110618,58.890843427798245 L 42.319589969702065,61.09156612219522 " fill="rgb(0,0,0)" stroke="rgb(0,0,0)" stroke-width="2" /><path d="M +42.319589969702065,61.09156612219522 L 42.731964704580605,62.411987817904446 " fill="rgb(0,0,0)" stroke="rgb(0,0,0)" stroke-width="2" /><path d="M +42.731964704580605,62.411987817904446 L 43.144339439459145,63.292229211947415 " fill="rgb(0,0,0)" stroke="rgb(0,0,0)" stroke-width="2" /><path d="M +43.144339439459145,63.292229211947415 L 43.144339439459145,64.28256038489053 " fill="rgb(0,0,0)" stroke="rgb(0,0,0)" stroke-width="2" /><path d="M +43.144339439459145,64.28256038489053 L 43.144339439459145,63.732409513613675 " fill="rgb(0,0,0)" stroke="rgb(0,0,0)" stroke-width="2" /><path d="M +43.144339439459145,63.732409513613675 L 43.0068762274459,63.732409513613675 " fill="rgb(0,0,0)" stroke="rgb(0,0,0)" stroke-width="2" /><path d="M +43.0068762274459,63.732409513613675 L 42.59450149256736,62.411987817904446 " fill="rgb(0,0,0)" stroke="rgb(0,0,0)" stroke-width="2" /><path d="M +42.59450149256736,62.411987817904446 L 41.907215234823525,61.5316868192167 " fill="rgb(0,0,0)" stroke="rgb(0,0,0)" stroke-width="2" /><path d="M +41.907215234823525,61.5316868192167 L 40.53265762049705,60.211265123507474 " fill="rgb(0,0,0)" stroke="rgb(0,0,0)" stroke-width="2" /><path d="M +40.53265762049705,60.211265123507474 L 38.60824715811759,58.45072273077676 " fill="rgb(0,0,0)" stroke="rgb(0,0,0)" stroke-width="2" /><path d="M +38.60824715811759,58.45072273077676 L 36.54640328604728,57.57042173208902 " fill="rgb(0,0,0)" stroke="rgb(0,0,0)" stroke-width="2" /><path d="M +36.54640328604728,57.57042173208902 L 33.93470656592399,56.5800905591459 " fill="rgb(0,0,0)" stroke="rgb(0,0,0)" stroke-width="2" /><path d="M +33.93470656592399,56.5800905591459 L 31.872862693853676,56.5800905591459 " fill="rgb(0,0,0)" stroke="rgb(0,0,0)" stroke-width="2" /><path d="M +31.872862693853676,56.5800905591459 L 29.536092397756875,56.5800905591459 " fill="rgb(0,0,0)" stroke="rgb(0,0,0)" stroke-width="2" /><path d="M +29.536092397756875,56.5800905591459 L 27.88660835940391,58.6707830792875 " fill="rgb(0,0,0)" stroke="rgb(0,0,0)" stroke-width="2" /><path d="M +27.88660835940391,58.6707830792875 L 26.649484154768288,60.76141599478433 " fill="rgb(0,0,0)" stroke="rgb(0,0,0)" stroke-width="2" /><path d="M +26.649484154768288,60.76141599478433 L 25.549838063307106,62.9621386891813 " fill="rgb(0,0,0)" stroke="rgb(0,0,0)" stroke-width="2" /><path d="M +25.549838063307106,62.9621386891813 L 25.549838063307106,64.72268108191201 " fill="rgb(0,0,0)" stroke="rgb(0,0,0)" stroke-width="2" /><path d="M +25.549838063307106,64.72268108191201 L 26.099661109037697,65.71301225485513 " fill="rgb(0,0,0)" stroke="rgb(0,0,0)" stroke-width="2" /><path d="M +26.099661109037697,65.71301225485513 L 26.924410578794777,66.04310277762124 " fill="rgb(0,0,0)" stroke="rgb(0,0,0)" stroke-width="2" /><path d="M +26.924410578794777,66.04310277762124 L 28.298968193121254,66.59331325354287 " fill="rgb(0,0,0)" stroke="rgb(0,0,0)" stroke-width="2" /><path d="M +28.298968193121254,66.59331325354287 L 29.94845223147422,66.59331325354287 " fill="rgb(0,0,0)" stroke="rgb(0,0,0)" stroke-width="2" /><path d="M +29.94845223147422,66.59331325354287 L 32.01031100470573,65.8230424291105 " fill="rgb(0,0,0)" stroke="rgb(0,0,0)" stroke-width="2" /><path d="M +32.01031100470573,65.8230424291105 L 33.93470656592399,64.50262073340127 " fill="rgb(0,0,0)" stroke="rgb(0,0,0)" stroke-width="2" /><path d="M +33.93470656592399,64.50262073340127 L 36.408940074034035,63.732409513613675 " fill="rgb(0,0,0)" stroke="rgb(0,0,0)" stroke-width="2" /><path d="M +36.408940074034035,63.732409513613675 L 38.195887324400246,62.411987817904446 " fill="rgb(0,0,0)" stroke="rgb(0,0,0)" stroke-width="2" /><path d="M +38.195887324400246,62.411987817904446 L 40.12028288561851,61.5316868192167 " fill="rgb(0,0,0)" stroke="rgb(0,0,0)" stroke-width="2" /><path d="M +40.12028288561851,61.5316868192167 L 41.769766923971474,60.65138582052896 " fill="rgb(0,0,0)" stroke="rgb(0,0,0)" stroke-width="2" /><path d="M +41.769766923971474,60.65138582052896 L 43.694162485189736,60.211265123507474 " fill="rgb(0,0,0)" stroke="rgb(0,0,0)" stroke-width="2" /><path d="M 54.27835297305137,52.2887349492521 " fill="rgb(0,0,0)" stroke="rgb(0,0,0)" stroke-width="2" /><path d="M +54.27835297305137,52.2887349492521 L 54.27835297305137,52.83888582052896 " fill="rgb(0,0,0)" stroke="rgb(0,0,0)" stroke-width="2" /><path d="M +54.27835297305137,52.83888582052896 L 54.14090466219932,53.60915664496133 " fill="rgb(0,0,0)" stroke="rgb(0,0,0)" stroke-width="2" /><path d="M +54.14090466219932,53.60915664496133 L 54.69072770792991,55.479729211947415 " fill="rgb(0,0,0)" stroke="rgb(0,0,0)" stroke-width="2" /><path d="M +54.69072770792991,55.479729211947415 L 55.2405507536605,57.57042173208902 " fill="rgb(0,0,0)" stroke="rgb(0,0,0)" stroke-width="2" /><path d="M +55.2405507536605,57.57042173208902 L 56.06530022341758,61.09156612219522 " fill="rgb(0,0,0)" stroke="rgb(0,0,0)" stroke-width="2" /><path d="M +56.06530022341758,61.09156612219522 L 57.02749800402671,65.0528312093229 " fill="rgb(0,0,0)" stroke="rgb(0,0,0)" stroke-width="2" /><path d="M +57.02749800402671,65.0528312093229 L 57.5773210497573,69.45421699347207 " fill="rgb(0,0,0)" stroke="rgb(0,0,0)" stroke-width="2" /><path d="M +57.5773210497573,69.45421699347207 L 57.8522325726226,73.41548208059976 " fill="rgb(0,0,0)" stroke="rgb(0,0,0)" stroke-width="2" /><path d="M +57.8522325726226,73.41548208059976 L 58.12715899664909,76.93662647070596 " fill="rgb(0,0,0)" stroke="rgb(0,0,0)" stroke-width="2" /><path d="M +58.12715899664909,76.93662647070596 L 57.98969578463584,80.0175905591459 " fill="rgb(0,0,0)" stroke="rgb(0,0,0)" stroke-width="2" /><path d="M +57.98969578463584,80.0175905591459 L 57.714784261770546,82.21831325354287 " fill="rgb(0,0,0)" stroke="rgb(0,0,0)" stroke-width="2" /><path d="M +57.714784261770546,82.21831325354287 L 57.43987273890525,83.5387349492521 " fill="rgb(0,0,0)" stroke="rgb(0,0,0)" stroke-width="2" /><path d="M +57.43987273890525,83.5387349492521 L 57.302409526892006,83.97885564627359 " fill="rgb(0,0,0)" stroke="rgb(0,0,0)" stroke-width="2" /><path d="M +57.302409526892006,83.97885564627359 L 56.752586481161416,83.5387349492521 " fill="rgb(0,0,0)" stroke="rgb(0,0,0)" stroke-width="2" /><path d="M +56.752586481161416,83.5387349492521 L 55.927837011404335,82.32834342779825 " fill="rgb(0,0,0)" stroke="rgb(0,0,0)" stroke-width="2" /><path d="M +55.927837011404335,82.32834342779825 L 54.553264495916665,79.13728956045816 " fill="rgb(0,0,0)" stroke="rgb(0,0,0)" stroke-width="2" /><path d="M +54.553264495916665,79.13728956045816 L 53.72852992732078,75.17602447333047 " fill="rgb(0,0,0)" stroke="rgb(0,0,0)" stroke-width="2" /><path d="M +53.72852992732078,75.17602447333047 L 52.49142062384635,71.65493968786905 " fill="rgb(0,0,0)" stroke="rgb(0,0,0)" stroke-width="2" /><path d="M +52.49142062384635,71.65493968786905 L 51.66667115408927,67.36352447333047 " fill="rgb(0,0,0)" stroke="rgb(0,0,0)" stroke-width="2" /><path d="M +51.66667115408927,67.36352447333047 L 51.11684810835868,62.411987817904446 " fill="rgb(0,0,0)" stroke="rgb(0,0,0)" stroke-width="2" /><path d="M +51.11684810835868,62.411987817904446 L 51.80413436610252,58.890843427798245 " fill="rgb(0,0,0)" stroke="rgb(0,0,0)" stroke-width="2" /><path d="M +51.80413436610252,58.890843427798245 L 52.76633214671165,54.92957834067056 " fill="rgb(0,0,0)" stroke="rgb(0,0,0)" stroke-width="2" /><path d="M +52.76633214671165,54.92957834067056 L 54.27835297305137,51.84861425223062 " fill="rgb(0,0,0)" stroke="rgb(0,0,0)" stroke-width="2" /><path d="M +54.27835297305137,51.84861425223062 L 56.06530022341758,49.647891557833645 " fill="rgb(0,0,0)" stroke="rgb(0,0,0)" stroke-width="2" /><path d="M +56.06530022341758,49.647891557833645 L 57.714784261770546,48.87762073340127 " fill="rgb(0,0,0)" stroke="rgb(0,0,0)" stroke-width="2" /><path d="M +57.714784261770546,48.87762073340127 L 59.50173151213676,48.767590551869944 " fill="rgb(0,0,0)" stroke="rgb(0,0,0)" stroke-width="2" /><path d="M +59.50173151213676,48.767590551869944 L 61.42612707335502,49.64789155055769 " fill="rgb(0,0,0)" stroke="rgb(0,0,0)" stroke-width="2" /><path d="M +61.42612707335502,49.64789155055769 L 63.075611111707985,51.29840376903303 " fill="rgb(0,0,0)" stroke="rgb(0,0,0)" stroke-width="2" /><path d="M +63.075611111707985,51.29840376903303 L 64.31272041518241,53.49912646343 " fill="rgb(0,0,0)" stroke="rgb(0,0,0)" stroke-width="2" /><path d="M +64.31272041518241,53.49912646343 L 64.03780889231712,56.13996985484846 " fill="rgb(0,0,0)" stroke="rgb(0,0,0)" stroke-width="2" /><path d="M +64.03780889231712,56.13996985484846 L 62.80069958884269,58.89084342052229 " fill="rgb(0,0,0)" stroke="rgb(0,0,0)" stroke-width="2" /><path d="M +62.80069958884269,58.89084342052229 L 60.60137760359794,60.651385813253 " fill="rgb(0,0,0)" stroke="rgb(0,0,0)" stroke-width="2" /><path d="M +60.60137760359794,60.651385813253 L 57.71478449460119,62.41198781062849 " fill="rgb(0,0,0)" stroke="rgb(0,0,0)" stroke-width="2" /><path d="M +57.71478449460119,62.41198781062849 L 54.140905127860606,63.73240950633772 " fill="rgb(0,0,0)" stroke="rgb(0,0,0)" stroke-width="2" /><path d="M +54.140905127860606,63.73240950633772 L 51.11684880685061,64.1725302033592 " fill="rgb(0,0,0)" stroke="rgb(0,0,0)" stroke-width="2" /><path d="M +51.11684880685061,64.1725302033592 L 48.642615298740566,64.1725302033592 " fill="rgb(0,0,0)" stroke="rgb(0,0,0)" stroke-width="2" /><path d="M +48.642615298740566,64.1725302033592 L 47.542969207279384,63.73240950633772 " fill="rgb(0,0,0)" stroke="rgb(0,0,0)" stroke-width="2" /><path d="M +47.542969207279384,63.73240950633772 L 47.40550599526614,62.85210850764997 " fill="rgb(0,0,0)" stroke="rgb(0,0,0)" stroke-width="2" /><path d="M +47.40550599526614,62.85210850764997 L 48.505166987888515,61.531686811940745 " fill="rgb(0,0,0)" stroke="rgb(0,0,0)" stroke-width="2" /><path d="M +48.505166987888515,61.531686811940745 L 50.84193728398532,59.77114441921003 " fill="rgb(0,0,0)" stroke="rgb(0,0,0)" stroke-width="2" /><path d="M 74.89691160153598,48.43750002910383 " fill="rgb(0,0,0)" stroke="rgb(0,0,0)" stroke-width="2" /><path d="M +74.89691160153598,48.43750002910383 L 75.58419785927981,49.317801027791575 " fill="rgb(0,0,0)" stroke="rgb(0,0,0)" stroke-width="2" /><path d="M +75.58419785927981,49.317801027791575 L 75.8591093821451,50.19804242183454 " fill="rgb(0,0,0)" stroke="rgb(0,0,0)" stroke-width="2" /><path d="M +75.8591093821451,50.19804242183454 L 76.40894732903689,52.288734941976145 " fill="rgb(0,0,0)" stroke="rgb(0,0,0)" stroke-width="2" /><path d="M +76.40894732903689,52.288734941976145 L 77.64605663251132,54.48945763637312 " fill="rgb(0,0,0)" stroke="rgb(0,0,0)" stroke-width="2" /><path d="M +77.64605663251132,54.48945763637312 L 79.15807745885104,56.690120726125315 " fill="rgb(0,0,0)" stroke="rgb(0,0,0)" stroke-width="2" /><path d="M +79.15807745885104,56.690120726125315 L 81.35739944409579,60.101234941976145 " fill="rgb(0,0,0)" stroke="rgb(0,0,0)" stroke-width="2" /><path d="M +81.35739944409579,60.101234941976145 L 83.55670652817935,63.622379332082346 " fill="rgb(0,0,0)" stroke="rgb(0,0,0)" stroke-width="2" /><path d="M +83.55670652817935,63.622379332082346 L 85.61856530141085,67.0334339432884 " fill="rgb(0,0,0)" stroke="rgb(0,0,0)" stroke-width="2" /><path d="M +85.61856530141085,67.0334339432884 L 87.68042407464236,70.44454815913923 " fill="rgb(0,0,0)" stroke="rgb(0,0,0)" stroke-width="2" /><path d="M +87.68042407464236,70.44454815913923 L 89.32990811299533,73.4154820733238 " fill="rgb(0,0,0)" stroke="rgb(0,0,0)" stroke-width="2" /><path d="M +89.32990811299533,73.4154820733238 L 90.42955420445651,76.49644616176374 " fill="rgb(0,0,0)" stroke="rgb(0,0,0)" stroke-width="2" /><path d="M +90.42955420445651,76.49644616176374 L 90.97939215134829,79.1372895531822 " fill="rgb(0,0,0)" stroke="rgb(0,0,0)" stroke-width="2" /><path d="M +90.97939215134829,79.1372895531822 L 90.97939215134829,81.2279820733238 " fill="rgb(0,0,0)" stroke="rgb(0,0,0)" stroke-width="2" /><path d="M +90.97939215134829,81.2279820733238 L 90.56701741646975,82.21831324626692 " fill="rgb(0,0,0)" stroke="rgb(0,0,0)" stroke-width="2" /><path d="M +90.56701741646975,82.21831324626692 L 90.29210589360446,82.54840376903303 " fill="rgb(0,0,0)" stroke="rgb(0,0,0)" stroke-width="2" /><path d="M +90.29210589360446,82.54840376903303 L 89.87973115872592,81.77813294460066 " fill="rgb(0,0,0)" stroke="rgb(0,0,0)" stroke-width="2" /><path d="M +89.87973115872592,81.77813294460066 L 88.78007016610354,79.57746985484846 " fill="rgb(0,0,0)" stroke="rgb(0,0,0)" stroke-width="2" /><path d="M +88.78007016610354,79.57746985484846 L 87.26804933976382,77.04665663768537 " fill="rgb(0,0,0)" stroke="rgb(0,0,0)" stroke-width="2" /><path d="M +87.26804933976382,77.04665663768537 L 85.61856530141085,73.08539155055769 " fill="rgb(0,0,0)" stroke="rgb(0,0,0)" stroke-width="2" /><path d="M +85.61856530141085,73.08539155055769 L 83.69416974019259,68.79403594066389 " fill="rgb(0,0,0)" stroke="rgb(0,0,0)" stroke-width="2" /><path d="M +83.69416974019259,68.79403594066389 L 82.31959722470492,64.94280102779157 " fill="rgb(0,0,0)" stroke="rgb(0,0,0)" stroke-width="2" /><path d="M +82.31959722470492,64.94280102779157 L 81.49484775494784,60.54135563899763 " fill="rgb(0,0,0)" stroke="rgb(0,0,0)" stroke-width="2" /><path d="M +81.49484775494784,60.54135563899763 L 81.63231102516875,56.580090551869944 " fill="rgb(0,0,0)" stroke="rgb(0,0,0)" stroke-width="2" /><path d="M +81.63231102516875,56.580090551869944 L 81.90722254803404,52.178704767720774 " fill="rgb(0,0,0)" stroke="rgb(0,0,0)" stroke-width="2" /><path d="M +81.90722254803404,52.178704767720774 L 83.69416979840025,49.09768107463606 " fill="rgb(0,0,0)" stroke="rgb(0,0,0)" stroke-width="2" /><path d="M +83.69416979840025,49.09768107463606 L 85.75601367047057,46.67695763637312 " fill="rgb(0,0,0)" stroke="rgb(0,0,0)" stroke-width="2" /><path d="M +85.75601367047057,46.67695763637312 L 88.64262191345915,45.24644616176374 " fill="rgb(0,0,0)" stroke="rgb(0,0,0)" stroke-width="2" /><path d="M +88.64262191345915,45.24644616176374 L 91.66667846729979,44.586265116231516 " fill="rgb(0,0,0)" stroke="rgb(0,0,0)" stroke-width="2" /><path d="M +91.66667846729979,44.586265116231516 L 94.96564654400572,44.47623493470019 " fill="rgb(0,0,0)" stroke="rgb(0,0,0)" stroke-width="2" /><path d="M +94.96564654400572,44.47623493470019 L 97.71477667381987,45.686626456154045 " fill="rgb(0,0,0)" stroke="rgb(0,0,0)" stroke-width="2" /><path d="M +97.71477667381987,45.686626456154045 L 99.50172392418608,47.33713867462939 " fill="rgb(0,0,0)" stroke="rgb(0,0,0)" stroke-width="2" /><path d="M +99.50172392418608,47.33713867462939 L 100.18901018192992,49.0976810673601 " fill="rgb(0,0,0)" stroke="rgb(0,0,0)" stroke-width="2" /><path d="M +100.18901018192992,49.0976810673601 L 99.50172392418608,50.41810276306933 " fill="rgb(0,0,0)" stroke="rgb(0,0,0)" stroke-width="2" /><path d="M +99.50172392418608,50.41810276306933 L 97.85223988583311,52.28873493470019 " fill="rgb(0,0,0)" stroke="rgb(0,0,0)" stroke-width="2" /><path d="M +97.85223988583311,52.28873493470019 L 94.96564677683637,53.389096281898674 " fill="rgb(0,0,0)" stroke="rgb(0,0,0)" stroke-width="2" /><path d="M +94.96564677683637,53.389096281898674 L 91.66667893296108,54.81954815186327 " fill="rgb(0,0,0)" stroke="rgb(0,0,0)" stroke-width="2" /><path d="M +91.66667893296108,54.81954815186327 L 87.817873142194,55.039608500374015 " fill="rgb(0,0,0)" stroke="rgb(0,0,0)" stroke-width="2" /><path d="M +87.817873142194,55.039608500374015 L 83.83161880774423,55.14963867462939 " fill="rgb(0,0,0)" stroke="rgb(0,0,0)" stroke-width="2" /><path d="M +83.83161880774423,55.14963867462939 L 80.25773944100365,54.37936785019701 " fill="rgb(0,0,0)" stroke="rgb(0,0,0)" stroke-width="2" /><path d="M +80.25773944100365,54.37936785019701 L 77.23368311999366,54.0492773274309 " fill="rgb(0,0,0)" stroke="rgb(0,0,0)" stroke-width="2" /><path d="M +77.23368311999366,54.0492773274309 L 75.44675077078864,53.2790661076433 " fill="rgb(0,0,0)" stroke="rgb(0,0,0)" stroke-width="2" /><path d="M +75.44675077078864,53.2790661076433 L 74.89691282389686,52.83888580597704 " fill="rgb(0,0,0)" stroke="rgb(0,0,0)" stroke-width="2" /><path d="M +74.89691282389686,52.83888580597704 L 75.3092875587754,51.958644411934074 " fill="rgb(0,0,0)" stroke="rgb(0,0,0)" stroke-width="2" /><path d="M +75.3092875587754,51.958644411934074 L 76.95877159712836,51.518464110267814 " fill="rgb(0,0,0)" stroke="rgb(0,0,0)" stroke-width="2" /><path d="M 108.29897950170562,36.113524458778556 " fill="rgb(0,0,0)" stroke="rgb(0,0,0)" stroke-width="2" /><path d="M +108.29897950170562,36.113524458778556 L 108.16151628969237,36.113524458778556 " fill="rgb(0,0,0)" stroke="rgb(0,0,0)" stroke-width="2" /><path d="M +108.16151628969237,36.113524458778556 L 108.16151628969237,36.66373493470019 " fill="rgb(0,0,0)" stroke="rgb(0,0,0)" stroke-width="2" /><path d="M +108.16151628969237,36.66373493470019 L 108.16151628969237,37.984156630409416 " fill="rgb(0,0,0)" stroke="rgb(0,0,0)" stroke-width="2" /><path d="M +108.16151628969237,37.984156630409416 L 108.29897955991328,40.18487932480639 " fill="rgb(0,0,0)" stroke="rgb(0,0,0)" stroke-width="2" /><path d="M +108.29897955991328,40.18487932480639 L 108.16151634790003,42.825722716224845 " fill="rgb(0,0,0)" stroke="rgb(0,0,0)" stroke-width="2" /><path d="M +108.16151634790003,42.825722716224845 L 108.43642787076533,46.34680750168627 " fill="rgb(0,0,0)" stroke="rgb(0,0,0)" stroke-width="2" /><path d="M +108.43642787076533,46.34680750168627 L 108.98626581765711,48.98765089310473 " fill="rgb(0,0,0)" stroke="rgb(0,0,0)" stroke-width="2" /><path d="M +108.98626581765711,48.98765089310473 L 110.77319816686213,50.96831323899096 " fill="rgb(0,0,0)" stroke="rgb(0,0,0)" stroke-width="2" /><path d="M +110.77319816686213,50.96831323899096 L 112.28523389436305,52.28873493470019 " fill="rgb(0,0,0)" stroke="rgb(0,0,0)" stroke-width="2" /><path d="M +112.28523389436305,52.28873493470019 L 114.20962945558131,52.948915980232414 " fill="rgb(0,0,0)" stroke="rgb(0,0,0)" stroke-width="2" /><path d="M +114.20962945558131,52.948915980232414 L 116.13402501679957,53.2790661076433 " fill="rgb(0,0,0)" stroke="rgb(0,0,0)" stroke-width="2" /><path d="M +116.13402501679957,53.2790661076433 L 118.19588379003108,52.28873493470019 " fill="rgb(0,0,0)" stroke="rgb(0,0,0)" stroke-width="2" /><path d="M +118.19588379003108,52.28873493470019 L 120.39519087411463,50.638222716224845 " fill="rgb(0,0,0)" stroke="rgb(0,0,0)" stroke-width="2" /><path d="M +120.39519087411463,50.638222716224845 L 122.73196117021143,48.767590544593986 " fill="rgb(0,0,0)" stroke="rgb(0,0,0)" stroke-width="2" /><path d="M +122.73196117021143,48.767590544593986 L 124.51890842057765,46.34680750168627 " fill="rgb(0,0,0)" stroke="rgb(0,0,0)" stroke-width="2" /><path d="M +124.51890842057765,46.34680750168627 L 126.03092924691737,44.47623493470019 " fill="rgb(0,0,0)" stroke="rgb(0,0,0)" stroke-width="2" /><path d="M +126.03092924691737,44.47623493470019 L 126.85567871667445,42.60560276306933 " fill="rgb(0,0,0)" stroke="rgb(0,0,0)" stroke-width="2" /><path d="M +126.85567871667445,42.60560276306933 L 127.40550176240504,41.2851810673601 " fill="rgb(0,0,0)" stroke="rgb(0,0,0)" stroke-width="2" /><path d="M +127.40550176240504,41.2851810673601 L 127.40550176240504,41.2851810673601 " fill="rgb(0,0,0)" stroke="rgb(0,0,0)" stroke-width="2" /><path d="M +127.40550176240504,41.2851810673601 L 127.54296503262594,41.2851810673601 " fill="rgb(0,0,0)" stroke="rgb(0,0,0)" stroke-width="2" /><path d="M +127.54296503262594,41.2851810673601 L 127.4055018206127,41.17515088582877 " fill="rgb(0,0,0)" stroke="rgb(0,0,0)" stroke-width="2" /><path d="M +127.4055018206127,41.17515088582877 L 127.81787655549124,42.495572581538 " fill="rgb(0,0,0)" stroke="rgb(0,0,0)" stroke-width="2" /><path d="M +127.81787655549124,42.495572581538 L 128.09278807835653,44.36620475316886 " fill="rgb(0,0,0)" stroke="rgb(0,0,0)" stroke-width="2" /><path d="M +128.09278807835653,44.36620475316886 L 129.05498585896567,46.897017970331945 " fill="rgb(0,0,0)" stroke="rgb(0,0,0)" stroke-width="2" /><path d="M +129.05498585896567,46.897017970331945 L 130.42955837445334,48.98765088582877 " fill="rgb(0,0,0)" stroke="rgb(0,0,0)" stroke-width="2" /><path d="M +130.42955837445334,48.98765088582877 L 131.804130889941,50.63822270894889 " fill="rgb(0,0,0)" stroke="rgb(0,0,0)" stroke-width="2" /><path d="M +131.804130889941,50.63822270894889 L 133.45361492829397,52.28873492742423 " fill="rgb(0,0,0)" stroke="rgb(0,0,0)" stroke-width="2" /><path d="M +133.45361492829397,52.28873492742423 L 134.4158127089031,52.50879527593497 " fill="rgb(0,0,0)" stroke="rgb(0,0,0)" stroke-width="2" /><path d="M 123.83162222104147,35.783433928736486 " fill="rgb(0,0,0)" stroke="rgb(0,0,0)" stroke-width="2" /><path d="M +123.83162222104147,35.783433928736486 L 122.86942444043234,35.783433928736486 " fill="rgb(0,0,0)" stroke="rgb(0,0,0)" stroke-width="2" /><path d="M +122.86942444043234,35.783433928736486 L 122.4570497055538,35.89346410299186 " fill="rgb(0,0,0)" stroke="rgb(0,0,0)" stroke-width="2" /><path d="M +122.4570497055538,35.89346410299186 L 122.04467497067526,35.89346410299186 " fill="rgb(0,0,0)" stroke="rgb(0,0,0)" stroke-width="2" /><path d="M +122.04467497067526,35.89346410299186 L 121.90722665982321,35.56337358022574 " fill="rgb(0,0,0)" stroke="rgb(0,0,0)" stroke-width="2" /><path d="M +121.90722665982321,35.56337358022574 L 122.1821381826885,36.00349427724723 " fill="rgb(0,0,0)" stroke="rgb(0,0,0)" stroke-width="2" /><path d="M +122.1821381826885,36.00349427724723 L 122.1821381826885,36.00349427724723 " fill="rgb(0,0,0)" stroke="rgb(0,0,0)" stroke-width="2" /><path d="M +122.1821381826885,36.00349427724723 L 122.1821381826885,36.333644404658116 " fill="rgb(0,0,0)" stroke="rgb(0,0,0)" stroke-width="2" /><path d="M +122.1821381826885,36.333644404658116 L 122.4570497055538,36.7737651016796 " fill="rgb(0,0,0)" stroke="rgb(0,0,0)" stroke-width="2" /><path d="M 149.94845531182364,41.17515088582877 " fill="rgb(0,0,0)" stroke="rgb(0,0,0)" stroke-width="2" /><path d="M +149.94845531182364,41.17515088582877 L 147.0618622028269,41.39521123433951 " fill="rgb(0,0,0)" stroke="rgb(0,0,0)" stroke-width="2" /><path d="M +147.0618622028269,41.39521123433951 L 144.58764359587803,42.60560275579337 " fill="rgb(0,0,0)" stroke="rgb(0,0,0)" stroke-width="2" /><path d="M +144.58764359587803,42.60560275579337 L 142.38832161063328,44.146144404658116 " fill="rgb(0,0,0)" stroke="rgb(0,0,0)" stroke-width="2" /><path d="M +142.38832161063328,44.146144404658116 L 140.46392604941502,45.68662644887809 " fill="rgb(0,0,0)" stroke="rgb(0,0,0)" stroke-width="2" /><path d="M +140.46392604941502,45.68662644887809 L 139.36426505679265,47.55719901586417 " fill="rgb(0,0,0)" stroke="rgb(0,0,0)" stroke-width="2" /><path d="M +139.36426505679265,47.55719901586417 L 139.36426505679265,49.31780101323966 " fill="rgb(0,0,0)" stroke="rgb(0,0,0)" stroke-width="2" /><path d="M +139.36426505679265,49.31780101323966 L 140.46392604941502,51.51846410299186 " fill="rgb(0,0,0)" stroke="rgb(0,0,0)" stroke-width="2" /><path d="M +140.46392604941502,51.51846410299186 L 142.113410087768,52.61882545019034 " fill="rgb(0,0,0)" stroke="rgb(0,0,0)" stroke-width="2" /><path d="M +142.113410087768,52.61882545019034 L 145.00001833075657,53.169035926111974 " fill="rgb(0,0,0)" stroke="rgb(0,0,0)" stroke-width="2" /><path d="M +145.00001833075657,53.169035926111974 L 148.2989864074625,53.279066100367345 " fill="rgb(0,0,0)" stroke="rgb(0,0,0)" stroke-width="2" /><path d="M +148.2989864074625,53.279066100367345 L 151.460476370994,52.06867457891349 " fill="rgb(0,0,0)" stroke="rgb(0,0,0)" stroke-width="2" /><path d="M +151.460476370994,52.06867457891349 L 154.62199613684788,51.18837358022574 " fill="rgb(0,0,0)" stroke="rgb(0,0,0)" stroke-width="2" /><path d="M +154.62199613684788,51.18837358022574 L 157.09621474379674,49.977982058771886 " fill="rgb(0,0,0)" stroke="rgb(0,0,0)" stroke-width="2" /><path d="M 163.55670258635655,41.17515088582877 " fill="rgb(0,0,0)" stroke="rgb(0,0,0)" stroke-width="2" /><path d="M +163.55670258635655,41.17515088582877 L 168.0927948676981,41.39521123433951 " fill="rgb(0,0,0)" stroke="rgb(0,0,0)" stroke-width="2" /><path d="M +168.0927948676981,41.39521123433951 L 169.8797421180643,41.945421710261144 " fill="rgb(0,0,0)" stroke="rgb(0,0,0)" stroke-width="2" /><path d="M +169.8797421180643,41.945421710261144 L 171.11683652037755,43.595933928736486 " fill="rgb(0,0,0)" stroke="rgb(0,0,0)" stroke-width="2" /><path d="M +171.11683652037755,43.595933928736486 L 173.45360681647435,45.466566100367345 " fill="rgb(0,0,0)" stroke="rgb(0,0,0)" stroke-width="2" /><path d="M +173.45360681647435,45.466566100367345 L 174.69073102110997,47.99737931753043 " fill="rgb(0,0,0)" stroke="rgb(0,0,0)" stroke-width="2" /><path d="M +174.69073102110997,47.99737931753043 L 176.2027518474497,50.41810275579337 " fill="rgb(0,0,0)" stroke="rgb(0,0,0)" stroke-width="2" /><path d="M +176.2027518474497,50.41810275579337 L 177.85225078696385,52.06867457891349 " fill="rgb(0,0,0)" stroke="rgb(0,0,0)" stroke-width="2" /><path d="M +177.85225078696385,52.06867457891349 L 178.67697045439854,53.279066100367345 " fill="rgb(0,0,0)" stroke="rgb(0,0,0)" stroke-width="2" /><path d="M +178.67697045439854,53.279066100367345 L 178.5395221435465,54.159307494410314 " fill="rgb(0,0,0)" stroke="rgb(0,0,0)" stroke-width="2" /><path d="M +178.5395221435465,54.159307494410314 L 178.95189687842503,54.159307494410314 " fill="rgb(0,0,0)" stroke="rgb(0,0,0)" stroke-width="2" /><path d="M +178.95189687842503,54.159307494410314 L 178.12714740866795,54.269337668665685 " fill="rgb(0,0,0)" stroke="rgb(0,0,0)" stroke-width="2" /><path d="M +178.12714740866795,54.269337668665685 L 177.85225078696385,52.838885798701085 " fill="rgb(0,0,0)" stroke="rgb(0,0,0)" stroke-width="2" /><path d="M +177.85225078696385,52.838885798701085 L 176.47767827147618,51.7385244515026 " fill="rgb(0,0,0)" stroke="rgb(0,0,0)" stroke-width="2" /><path d="M +176.47767827147618,51.7385244515026 L 174.41580459708348,49.867951884516515 " fill="rgb(0,0,0)" stroke="rgb(0,0,0)" stroke-width="2" /><path d="M +174.41580459708348,49.867951884516515 L 172.21651218133047,48.437500014551915 " fill="rgb(0,0,0)" stroke="rgb(0,0,0)" stroke-width="2" /><path d="M +172.21651218133047,48.437500014551915 L 170.15463850693777,47.33713866735343 " fill="rgb(0,0,0)" stroke="rgb(0,0,0)" stroke-width="2" /><path d="M +170.15463850693777,47.33713866735343 L 167.81786821084097,46.6769576218212 " fill="rgb(0,0,0)" stroke="rgb(0,0,0)" stroke-width="2" /><path d="M +167.81786821084097,46.6769576218212 L 165.8934726496227,47.4471688416088 " fill="rgb(0,0,0)" stroke="rgb(0,0,0)" stroke-width="2" /><path d="M +165.8934726496227,47.4471688416088 L 163.00687954062596,47.887289538630284 " fill="rgb(0,0,0)" stroke="rgb(0,0,0)" stroke-width="2" /><path d="M +163.00687954062596,47.887289538630284 L 161.3573806011118,48.8776207115734 " fill="rgb(0,0,0)" stroke="rgb(0,0,0)" stroke-width="2" /><path d="M +161.3573806011118,48.8776207115734 L 160.5326609336771,50.41810275579337 " fill="rgb(0,0,0)" stroke="rgb(0,0,0)" stroke-width="2" /><path d="M +160.5326609336771,50.41810275579337 L 160.94503566855565,51.7385244515026 " fill="rgb(0,0,0)" stroke="rgb(0,0,0)" stroke-width="2" /><path d="M +160.94503566855565,51.7385244515026 L 162.59450480574742,52.838885798701085 " fill="rgb(0,0,0)" stroke="rgb(0,0,0)" stroke-width="2" /><path d="M +162.59450480574742,52.838885798701085 L 164.79382679099217,53.05894614721183 " fill="rgb(0,0,0)" stroke="rgb(0,0,0)" stroke-width="2" /><path d="M +164.79382679099217,53.05894614721183 L 167.95531675452366,53.05894614721183 " fill="rgb(0,0,0)" stroke="rgb(0,0,0)" stroke-width="2" /><path d="M +167.95531675452366,53.05894614721183 L 170.704461785499,51.7385244515026 " fill="rgb(0,0,0)" stroke="rgb(0,0,0)" stroke-width="2" /><path d="M +170.704461785499,51.7385244515026 L 174.82817933196202,50.308072581538 " fill="rgb(0,0,0)" stroke="rgb(0,0,0)" stroke-width="2" /><path d="M +174.82817933196202,50.308072581538 L 176.89005300635472,48.547530188807286 " fill="rgb(0,0,0)" stroke="rgb(0,0,0)" stroke-width="2" /><path d="M +176.89005300635472,48.547530188807286 L 180.0515429698862,46.23677732015494 " fill="rgb(0,0,0)" stroke="rgb(0,0,0)" stroke-width="2" /><path d="M 184.45018694037572,33.47268106008414 " fill="rgb(0,0,0)" stroke="rgb(0,0,0)" stroke-width="2" /><path d="M +184.45018694037572,33.47268106008414 L 184.45018694037572,31.71213866735343 " fill="rgb(0,0,0)" stroke="rgb(0,0,0)" stroke-width="2" /><path d="M +184.45018694037572,31.71213866735343 L 184.72508356207982,30.721807494410314 " fill="rgb(0,0,0)" stroke="rgb(0,0,0)" stroke-width="2" /><path d="M +184.72508356207982,30.721807494410314 L 185.13745829695836,30.721807494410314 " fill="rgb(0,0,0)" stroke="rgb(0,0,0)" stroke-width="2" /><path d="M +185.13745829695836,30.721807494410314 L 185.13745829695836,30.721807494410314 " fill="rgb(0,0,0)" stroke="rgb(0,0,0)" stroke-width="2" /><path d="M +185.13745829695836,30.721807494410314 L 185.13745829695836,31.161987796076573 " fill="rgb(0,0,0)" stroke="rgb(0,0,0)" stroke-width="2" /><path d="M +185.13745829695836,31.161987796076573 L 185.13745829695836,33.47268106008414 " fill="rgb(0,0,0)" stroke="rgb(0,0,0)" stroke-width="2" /><path d="M +185.13745829695836,33.47268106008414 L 185.41238472098485,36.1135244515026 " fill="rgb(0,0,0)" stroke="rgb(0,0,0)" stroke-width="2" /><path d="M +185.41238472098485,36.1135244515026 L 186.0996560775675,39.52463866735343 " fill="rgb(0,0,0)" stroke="rgb(0,0,0)" stroke-width="2" /><path d="M +186.0996560775675,39.52463866735343 L 187.06185385817662,42.495572581538 " fill="rgb(0,0,0)" stroke="rgb(0,0,0)" stroke-width="2" /><path d="M +187.06185385817662,42.495572581538 L 186.92440554732457,45.24644614721183 " fill="rgb(0,0,0)" stroke="rgb(0,0,0)" stroke-width="2" /><path d="M +186.92440554732457,45.24644614721183 L 187.3367802822031,47.4471688416088 " fill="rgb(0,0,0)" stroke="rgb(0,0,0)" stroke-width="2" /><path d="M +187.3367802822031,47.4471688416088 L 187.19933197135106,48.76759053731803 " fill="rgb(0,0,0)" stroke="rgb(0,0,0)" stroke-width="2" /><path d="M +187.19933197135106,48.76759053731803 L 187.47422859305516,49.09768106008414 " fill="rgb(0,0,0)" stroke="rgb(0,0,0)" stroke-width="2" /><path d="M +187.47422859305516,49.09768106008414 L 187.61167684569955,48.76759053731803 " fill="rgb(0,0,0)" stroke="rgb(0,0,0)" stroke-width="2" /><path d="M +187.61167684569955,48.76759053731803 L 188.98624936118722,47.99737931753043 " fill="rgb(0,0,0)" stroke="rgb(0,0,0)" stroke-width="2" /><path d="M +188.98624936118722,47.99737931753043 L 190.63574830070138,46.456837668665685 " fill="rgb(0,0,0)" stroke="rgb(0,0,0)" stroke-width="2" /><path d="M +190.63574830070138,46.456837668665685 L 192.28521743789315,43.9260244515026 " fill="rgb(0,0,0)" stroke="rgb(0,0,0)" stroke-width="2" /><path d="M +192.28521743789315,43.9260244515026 L 194.62198773398995,42.165482058771886 " fill="rgb(0,0,0)" stroke="rgb(0,0,0)" stroke-width="2" /><path d="M +194.62198773398995,42.165482058771886 L 196.8213097192347,40.40493966604117 " fill="rgb(0,0,0)" stroke="rgb(0,0,0)" stroke-width="2" /><path d="M +196.8213097192347,40.40493966604117 L 199.57045475021005,39.96475936437491 " fill="rgb(0,0,0)" stroke="rgb(0,0,0)" stroke-width="2" /><path d="M +199.57045475021005,39.96475936437491 L 202.18212166801095,39.854729182843585 " fill="rgb(0,0,0)" stroke="rgb(0,0,0)" stroke-width="2" /><path d="M +202.18212166801095,39.854729182843585 L 204.6563700772822,40.8450603557867 " fill="rgb(0,0,0)" stroke="rgb(0,0,0)" stroke-width="2" /><path d="M +204.6563700772822,40.8450603557867 L 206.7182139493525,42.16548205149593 " fill="rgb(0,0,0)" stroke="rgb(0,0,0)" stroke-width="2" /><path d="M +206.7182139493525,42.16548205149593 L 207.81786004081368,44.696295268659014 " fill="rgb(0,0,0)" stroke="rgb(0,0,0)" stroke-width="2" /><path d="M +207.81786004081368,44.696295268659014 L 207.95533815398812,46.45683766138973 " fill="rgb(0,0,0)" stroke="rgb(0,0,0)" stroke-width="2" /><path d="M +207.95533815398812,46.45683766138973 L 207.26803687866777,48.87762070429744 " fill="rgb(0,0,0)" stroke="rgb(0,0,0)" stroke-width="2" /><path d="M +207.26803687866777,48.87762070429744 L 205.75601605232805,50.528132922772784 " fill="rgb(0,0,0)" stroke="rgb(0,0,0)" stroke-width="2" /><path d="M +205.75601605232805,50.528132922772784 L 202.45704820845276,51.188373572949786 " fill="rgb(0,0,0)" stroke="rgb(0,0,0)" stroke-width="2" /><path d="M +202.45704820845276,51.188373572949786 L 199.70790317747742,51.188373572949786 " fill="rgb(0,0,0)" stroke="rgb(0,0,0)" stroke-width="2" /><path d="M +199.70790317747742,51.188373572949786 L 196.40893533360213,51.73852444422664 " fill="rgb(0,0,0)" stroke="rgb(0,0,0)" stroke-width="2" /><path d="M +196.40893533360213,51.73852444422664 L 192.6975927548483,50.63822270167293 " fill="rgb(0,0,0)" stroke="rgb(0,0,0)" stroke-width="2" /><path d="M +192.6975927548483,50.63822270167293 L 190.08592560421675,49.647891528729815 " fill="rgb(0,0,0)" stroke="rgb(0,0,0)" stroke-width="2" /><path d="M +190.08592560421675,49.647891528729815 L 188.4364266647026,48.107409484509844 " fill="rgb(0,0,0)" stroke="rgb(0,0,0)" stroke-width="2" /><path d="M +188.4364266647026,48.107409484509844 L 187.886603618972,46.786987788800616 " fill="rgb(0,0,0)" stroke="rgb(0,0,0)" stroke-width="2" /><path d="M +187.886603618972,46.786987788800616 L 188.4364266647026,45.356535918836016 " fill="rgb(0,0,0)" stroke="rgb(0,0,0)" stroke-width="2" /><path d="M +188.4364266647026,45.356535918836016 L 190.2233739150688,43.375873572949786 " fill="rgb(0,0,0)" stroke="rgb(0,0,0)" stroke-width="2" /><path d="M +190.2233739150688,43.375873572949786 L 193.6597903026268,40.95509053004207 " fill="rgb(0,0,0)" stroke="rgb(0,0,0)" stroke-width="2" /><path d="M +193.6597903026268,40.95509053004207 L 197.37113311421126,38.424277312878985 " fill="rgb(0,0,0)" stroke="rgb(0,0,0)" stroke-width="2" /><path d="M +197.37113311421126,38.424277312878985 L 201.9072253955528,36.33364439738216 " fill="rgb(0,0,0)" stroke="rgb(0,0,0)" stroke-width="2" /><path d="M +201.9072253955528,36.33364439738216 L 205.8934648288414,34.24295187724056 " fill="rgb(0,0,0)" stroke="rgb(0,0,0)" stroke-width="2" /><path d="M +205.8934648288414,34.24295187724056 L 209.7422857536003,32.152259357098956 " fill="rgb(0,0,0)" stroke="rgb(0,0,0)" stroke-width="2" /><path d="M +209.7422857536003,32.152259357098956 L 213.04125383030623,30.611777312878985 " fill="rgb(0,0,0)" stroke="rgb(0,0,0)" stroke-width="2" /><path d="M +213.04125383030623,30.611777312878985 L 215.92784717213362,29.5114159656805 " fill="rgb(0,0,0)" stroke="rgb(0,0,0)" stroke-width="2" /><path d="M +215.92784717213362,29.5114159656805 L 217.8522427333519,29.181325442914385 " fill="rgb(0,0,0)" stroke="rgb(0,0,0)" stroke-width="2" /><path d="M +217.8522427333519,29.181325442914385 L 218.81444051396102,29.401385791425128 " fill="rgb(0,0,0)" stroke="rgb(0,0,0)" stroke-width="2" /><path d="M +218.81444051396102,29.401385791425128 L 219.3642635596916,30.721807487134356 " fill="rgb(0,0,0)" stroke="rgb(0,0,0)" stroke-width="2" /><path d="M +219.3642635596916,30.721807487134356 L 218.95188882481307,32.482409484509844 " fill="rgb(0,0,0)" stroke="rgb(0,0,0)" stroke-width="2" /><path d="M +218.95188882481307,32.482409484509844 L 218.67699220310897,35.34331322443904 " fill="rgb(0,0,0)" stroke="rgb(0,0,0)" stroke-width="2" /><path d="M +218.67699220310897,35.34331322443904 L 218.26461746823043,38.64433766138973 " fill="rgb(0,0,0)" stroke="rgb(0,0,0)" stroke-width="2" /><path d="M +218.26461746823043,38.64433766138973 L 217.98969104420394,41.835391528729815 " fill="rgb(0,0,0)" stroke="rgb(0,0,0)" stroke-width="2" /><path d="M +217.98969104420394,41.835391528729815 L 218.40206577908248,44.916355617169756 " fill="rgb(0,0,0)" stroke="rgb(0,0,0)" stroke-width="2" /><path d="M +218.40206577908248,44.916355617169756 L 219.3642635596916,47.99737931025447 " fill="rgb(0,0,0)" stroke="rgb(0,0,0)" stroke-width="2" /><path d="M +219.3642635596916,47.99737931025447 L 220.1890130294487,49.647891528729815 " fill="rgb(0,0,0)" stroke="rgb(0,0,0)" stroke-width="2" /><path d="M +220.1890130294487,49.647891528729815 L 221.01376249920577,50.30807257426204 " fill="rgb(0,0,0)" stroke="rgb(0,0,0)" stroke-width="2" /><path d="M +221.01376249920577,50.30807257426204 L 222.38833501469344,49.97798205149593 " fill="rgb(0,0,0)" stroke="rgb(0,0,0)" stroke-width="2" /><path d="M +222.38833501469344,49.97798205149593 L 223.62542941700667,49.757921702985186 " fill="rgb(0,0,0)" stroke="rgb(0,0,0)" stroke-width="2" /><path d="M +223.62542941700667,49.757921702985186 L 224.8625536216423,48.217439658765215 " fill="rgb(0,0,0)" stroke="rgb(0,0,0)" stroke-width="2" /><path d="M +224.8625536216423,48.217439658765215 L 225.96219971310347,46.5668678356451 " fill="rgb(0,0,0)" stroke="rgb(0,0,0)" stroke-width="2" /><path d="M +225.96219971310347,46.5668678356451 L 226.23712613712996,44.696295268659014 " fill="rgb(0,0,0)" stroke="rgb(0,0,0)" stroke-width="2" /><path d="M 226.37457438977435,41.945421702985186 " fill="rgb(0,0,0)" stroke="rgb(0,0,0)" stroke-width="2" /><path d="M +226.37457438977435,41.945421702985186 L 226.37457438977435,41.5053010059637 " fill="rgb(0,0,0)" stroke="rgb(0,0,0)" stroke-width="2" /><path d="M +226.37457438977435,41.5053010059637 L 226.64950081380084,40.95509053004207 " fill="rgb(0,0,0)" stroke="rgb(0,0,0)" stroke-width="2" /><path d="M +226.64950081380084,40.95509053004207 L 227.47422048123553,40.294909484509844 " fill="rgb(0,0,0)" stroke="rgb(0,0,0)" stroke-width="2" /><path d="M +227.47422048123553,40.294909484509844 L 228.71134468587115,39.19454813731136 " fill="rgb(0,0,0)" stroke="rgb(0,0,0)" stroke-width="2" /><path d="M +228.71134468587115,39.19454813731136 L 231.04811498196796,38.7543678356451 " fill="rgb(0,0,0)" stroke="rgb(0,0,0)" stroke-width="2" /><path d="M +231.04811498196796,38.7543678356451 L 233.10995885403827,37.21388579142513 " fill="rgb(0,0,0)" stroke="rgb(0,0,0)" stroke-width="2" /><path d="M +233.10995885403827,37.21388579142513 L 235.72165557416156,36.66373492014827 " fill="rgb(0,0,0)" stroke="rgb(0,0,0)" stroke-width="2" /><path d="M +235.72165557416156,36.66373492014827 L 237.50860282452777,35.34331322443904 " fill="rgb(0,0,0)" stroke="rgb(0,0,0)" stroke-width="2" /><path d="M +237.50860282452777,35.34331322443904 L 238.4708006051369,34.24295187724056 " fill="rgb(0,0,0)" stroke="rgb(0,0,0)" stroke-width="2" /><path d="M +238.4708006051369,34.24295187724056 L 238.6082488577813,33.6928010059637 " fill="rgb(0,0,0)" stroke="rgb(0,0,0)" stroke-width="2" /><path d="M +238.6082488577813,33.6928010059637 L 238.3333522360772,33.80283118021907 " fill="rgb(0,0,0)" stroke="rgb(0,0,0)" stroke-width="2" /><path d="M +238.3333522360772,33.80283118021907 L 236.95877972058952,33.692800998687744 " fill="rgb(0,0,0)" stroke="rgb(0,0,0)" stroke-width="2" /><path d="M +236.95877972058952,33.692800998687744 L 235.1718324702233,34.57304239273071 " fill="rgb(0,0,0)" stroke="rgb(0,0,0)" stroke-width="2" /><path d="M +235.1718324702233,34.57304239273071 L 232.42268743924797,36.113524436950684 " fill="rgb(0,0,0)" stroke="rgb(0,0,0)" stroke-width="2" /><path d="M +232.42268743924797,36.113524436950684 L 230.63574018888175,38.75436782836914 " fill="rgb(0,0,0)" stroke="rgb(0,0,0)" stroke-width="2" /><path d="M +230.63574018888175,38.75436782836914 L 229.53609409742057,41.28518104553223 " fill="rgb(0,0,0)" stroke="rgb(0,0,0)" stroke-width="2" /><path d="M +229.53609409742057,41.28518104553223 L 229.53609409742057,43.4859037399292 " fill="rgb(0,0,0)" stroke="rgb(0,0,0)" stroke-width="2" /><path d="M +229.53609409742057,43.4859037399292 L 231.18556323461235,45.46656608581543 " fill="rgb(0,0,0)" stroke="rgb(0,0,0)" stroke-width="2" /><path d="M +231.18556323461235,45.46656608581543 L 233.6598116438836,47.22710847854614 " fill="rgb(0,0,0)" stroke="rgb(0,0,0)" stroke-width="2" /><path d="M +233.6598116438836,47.22710847854614 L 237.23367634229362,47.777259349823 " fill="rgb(0,0,0)" stroke="rgb(0,0,0)" stroke-width="2" /><path d="M +237.23367634229362,47.777259349823 L 241.08246746473014,48.32746982574463 " fill="rgb(0,0,0)" stroke="rgb(0,0,0)" stroke-width="2" /><path d="M +241.08246746473014,48.32746982574463 L 244.51891365461051,47.557199001312256 " fill="rgb(0,0,0)" stroke="rgb(0,0,0)" stroke-width="2" /><path d="M +244.51891365461051,47.557199001312256 L 247.54295530728996,46.78698778152466 " fill="rgb(0,0,0)" stroke="rgb(0,0,0)" stroke-width="2" /><path d="M +247.54295530728996,46.78698778152466 L 249.7422772925347,45.35653591156006 " fill="rgb(0,0,0)" stroke="rgb(0,0,0)" stroke-width="2" /><path d="M +249.7422772925347,45.35653591156006 L 250.97937169484794,44.25617456436157 " fill="rgb(0,0,0)" stroke="rgb(0,0,0)" stroke-width="2" /><path d="M +250.97937169484794,44.25617456436157 L 251.52922454290092,43.59593391418457 " fill="rgb(0,0,0)" stroke="rgb(0,0,0)" stroke-width="2" /><path d="M +251.52922454290092,43.59593391418457 L 251.11684980802238,42.27551221847534 " fill="rgb(0,0,0)" stroke="rgb(0,0,0)" stroke-width="2" /><path d="M 300.463918922469,25.0 " fill="rgb(0,0,0)" stroke="rgb(0,0,0)" stroke-width="2" /><path d="M +300.463918922469,25.0 L 300.18899249844253,26.54048204421997 " fill="rgb(0,0,0)" stroke="rgb(0,0,0)" stroke-width="2" /><path d="M +300.18899249844253,26.54048204421997 L 299.91409587673843,27.640843391418457 " fill="rgb(0,0,0)" stroke="rgb(0,0,0)" stroke-width="2" /><path d="M +299.91409587673843,27.640843391418457 L 300.18899249844253,29.9515962600708 " fill="rgb(0,0,0)" stroke="rgb(0,0,0)" stroke-width="2" /><path d="M +300.18899249844253,29.9515962600708 L 300.60136723332107,32.59243965148926 " fill="rgb(0,0,0)" stroke="rgb(0,0,0)" stroke-width="2" /><path d="M +300.60136723332107,32.59243965148926 L 300.87629365734756,35.343313217163086 " fill="rgb(0,0,0)" stroke="rgb(0,0,0)" stroke-width="2" /><path d="M +300.87629365734756,35.343313217163086 L 301.42611670307815,38.42427730560303 " fill="rgb(0,0,0)" stroke="rgb(0,0,0)" stroke-width="2" /><path d="M +301.42611670307815,38.42427730560303 L 302.25086617283523,41.94542169570923 " fill="rgb(0,0,0)" stroke="rgb(0,0,0)" stroke-width="2" /><path d="M +302.25086617283523,41.94542169570923 L 303.21306395344436,44.9163556098938 " fill="rgb(0,0,0)" stroke="rgb(0,0,0)" stroke-width="2" /><path d="M +303.21306395344436,44.9163556098938 L 303.900335310027,47.11707830429077 " fill="rgb(0,0,0)" stroke="rgb(0,0,0)" stroke-width="2" /><path d="M +303.900335310027,47.11707830429077 L 304.58763646893203,48.877620697021484 " fill="rgb(0,0,0)" stroke="rgb(0,0,0)" stroke-width="2" /><path d="M +304.58763646893203,48.877620697021484 L 304.1752617340535,48.877620697021484 " fill="rgb(0,0,0)" stroke="rgb(0,0,0)" stroke-width="2" /><path d="M +304.1752617340535,48.877620697021484 L 304.3127099866979,49.317800998687744 " fill="rgb(0,0,0)" stroke="rgb(0,0,0)" stroke-width="2" /><path d="M 295.9278265829198,37.7640962600708 " fill="rgb(0,0,0)" stroke="rgb(0,0,0)" stroke-width="2" /><path d="M +295.9278265829198,37.7640962600708 L 295.3780035371892,36.99382543563843 " fill="rgb(0,0,0)" stroke="rgb(0,0,0)" stroke-width="2" /><path d="M +295.3780035371892,36.99382543563843 L 295.6529299612157,36.8837952541071 " fill="rgb(0,0,0)" stroke="rgb(0,0,0)" stroke-width="2" /><path d="M +295.6529299612157,36.8837952541071 L 296.06530469609424,36.77376507257577 " fill="rgb(0,0,0)" stroke="rgb(0,0,0)" stroke-width="2" /><path d="M +296.06530469609424,36.77376507257577 L 297.714773833286,36.223614201298915 " fill="rgb(0,0,0)" stroke="rgb(0,0,0)" stroke-width="2" /><path d="M +297.714773833286,36.223614201298915 L 300.3264705534093,36.0034942481434 " fill="rgb(0,0,0)" stroke="rgb(0,0,0)" stroke-width="2" /><path d="M +300.3264705534093,36.0034942481434 L 303.4879605169408,35.56337355112191 " fill="rgb(0,0,0)" stroke="rgb(0,0,0)" stroke-width="2" /><path d="M +303.4879605169408,35.56337355112191 L 306.78692859364673,34.90313290094491 " fill="rgb(0,0,0)" stroke="rgb(0,0,0)" stroke-width="2" /></svg>