<?xml version="1.0" encoding="utf-8" ?>
<svg baseProfile="full" height="277.9411554336548" version="1.1" width="342.22011391539127" xmlns="http://www.w3.org/2000/svg" xmlns:ev="http://www.w3.org/2001/xml-events" xmlns:xlink="http://www.w3.org/1999/xlink"><defs /><rect fill="white" height="277.9411554336548" width="342.22011391539127" x="0" y="0" /><path d="M 25.0,29.411756992340088 " fill="rgb(0,0,0)" stroke="rgb(0,0,0)" stroke-width="2" /><path d="M +25.0,29.411756992340088 L 25.0,25.0 " fill="rgb(0,0,0)" stroke="rgb(0,0,0)" stroke-width="2" /><path d="M +25.0,25.0 L 25.47437846660614,29.411756992340088 " fill="rgb(0,0,0)" stroke="rgb(0,0,0)" stroke-width="2" /><path d="M +25.47437846660614,29.411756992340088 L 26.897528767585754,61.764681339263916 " fill="rgb(0,0,0)" stroke="rgb(0,0,0)" stroke-width="2" /><path d="M +26.897528767585754,61.764681339263916 L 28.32067906856537,123.5293984413147 " fill="rgb(0,0,0)" stroke="rgb(0,0,0)" stroke-width="2" /><path d="M +28.32067906856537,123.5293984413147 L 29.743829369544983,164.7058665752411 " fill="rgb(0,0,0)" stroke="rgb(0,0,0)" stroke-width="2" /><path d="M +29.743829369544983,164.7058665752411 L 30.69259375333786,188.23527693748474 " fill="rgb(0,0,0)" stroke="rgb(0,0,0)" stroke-width="2" /><path d="M +30.69259375333786,188.23527693748474 L 32.115744054317474,199.99998211860657 " fill="rgb(0,0,0)" stroke="rgb(0,0,0)" stroke-width="2" /><path d="M +32.115744054317474,199.99998211860657 L 33.53889435529709,207.3529303073883 " fill="rgb(0,0,0)" stroke="rgb(0,0,0)" stroke-width="2" /><path d="M +33.53889435529709,207.3529303073883 L 34.487658739089966,208.82352590560913 " fill="rgb(0,0,0)" stroke="rgb(0,0,0)" stroke-width="2" /><path d="M +34.487658739089966,208.82352590560913 L 34.9620446562767,201.4705777168274 " fill="rgb(0,0,0)" stroke="rgb(0,0,0)" stroke-width="2" /><path d="M +34.9620446562767,201.4705777168274 L 35.43643057346344,188.23527693748474 " fill="rgb(0,0,0)" stroke="rgb(0,0,0)" stroke-width="2" /><path d="M +35.43643057346344,188.23527693748474 L 35.91080904006958,170.588219165802 " fill="rgb(0,0,0)" stroke="rgb(0,0,0)" stroke-width="2" /><path d="M +35.91080904006958,170.588219165802 L 35.91080904006958,155.8823525905609 " fill="rgb(0,0,0)" stroke="rgb(0,0,0)" stroke-width="2" /><path d="M +35.91080904006958,155.8823525905609 L 35.91080904006958,130.88234663009644 " fill="rgb(0,0,0)" stroke="rgb(0,0,0)" stroke-width="2" /><path d="M +35.91080904006958,130.88234663009644 L 36.38519495725632,116.17645025253296 " fill="rgb(0,0,0)" stroke="rgb(0,0,0)" stroke-width="2" /><path d="M +36.38519495725632,116.17645025253296 L 36.859580874443054,110.29409766197205 " fill="rgb(0,0,0)" stroke="rgb(0,0,0)" stroke-width="2" /><path d="M +36.859580874443054,110.29409766197205 L 37.80834525823593,113.2352888584137 " fill="rgb(0,0,0)" stroke="rgb(0,0,0)" stroke-width="2" /><path d="M +37.80834525823593,113.2352888584137 L 38.75710964202881,127.94115543365479 " fill="rgb(0,0,0)" stroke="rgb(0,0,0)" stroke-width="2" /><path d="M +38.75710964202881,127.94115543365479 L 40.18025994300842,147.05880880355835 " fill="rgb(0,0,0)" stroke="rgb(0,0,0)" stroke-width="2" /><path d="M +40.18025994300842,147.05880880355835 L 42.077796161174774,164.7058665752411 " fill="rgb(0,0,0)" stroke="rgb(0,0,0)" stroke-width="2" /><path d="M +42.077796161174774,164.7058665752411 L 44.449710845947266,174.9999761581421 " fill="rgb(0,0,0)" stroke="rgb(0,0,0)" stroke-width="2" /><path d="M +44.449710845947266,174.9999761581421 L 46.34724706411362,179.41176295280457 " fill="rgb(0,0,0)" stroke="rgb(0,0,0)" stroke-width="2" /><path d="M +46.34724706411362,179.41176295280457 L 48.71916174888611,179.41176295280457 " fill="rgb(0,0,0)" stroke="rgb(0,0,0)" stroke-width="2" /><path d="M +48.71916174888611,179.41176295280457 L 50.14231204986572,172.05881476402283 " fill="rgb(0,0,0)" stroke="rgb(0,0,0)" stroke-width="2" /><path d="M +50.14231204986572,172.05881476402283 L 51.0910764336586,155.8823525905609 " fill="rgb(0,0,0)" stroke="rgb(0,0,0)" stroke-width="2" /><path d="M +51.0910764336586,155.8823525905609 L 51.56546235084534,133.8235080242157 " fill="rgb(0,0,0)" stroke="rgb(0,0,0)" stroke-width="2" /><path d="M +51.56546235084534,133.8235080242157 L 51.56546235084534,108.82350206375122 " fill="rgb(0,0,0)" stroke="rgb(0,0,0)" stroke-width="2" /><path d="M +51.56546235084534,108.82350206375122 L 50.61669796705246,83.82352590560913 " fill="rgb(0,0,0)" stroke="rgb(0,0,0)" stroke-width="2" /><path d="M +50.61669796705246,83.82352590560913 L 49.667926132678986,61.764681339263916 " fill="rgb(0,0,0)" stroke="rgb(0,0,0)" stroke-width="2" /><path d="M +49.667926132678986,61.764681339263916 L 48.24477583169937,44.11762356758118 " fill="rgb(0,0,0)" stroke="rgb(0,0,0)" stroke-width="2" /><path d="M +48.24477583169937,44.11762356758118 L 47.296011447906494,33.823513984680176 " fill="rgb(0,0,0)" stroke="rgb(0,0,0)" stroke-width="2" /><path d="M +47.296011447906494,33.823513984680176 L 47.296011447906494,27.941161394119263 " fill="rgb(0,0,0)" stroke="rgb(0,0,0)" stroke-width="2" /><path d="M +47.296011447906494,27.941161394119263 L 48.24477583169937,32.35291838645935 " fill="rgb(0,0,0)" stroke="rgb(0,0,0)" stroke-width="2" /><path d="M +48.24477583169937,32.35291838645935 L 48.24477583169937,32.35291838645935 " fill="rgb(0,0,0)" stroke="rgb(0,0,0)" stroke-width="2" /><path d="M 59.15559232234955,150.0 " fill="rgb(0,0,0)" stroke="rgb(0,0,0)" stroke-width="2" /><path d="M +59.15559232234955,150.0 L 61.0531285405159,147.05880880355835 " fill="rgb(0,0,0)" stroke="rgb(0,0,0)" stroke-width="2" /><path d="M +61.0531285405159,147.05880880355835 L 64.848193526268,130.88234663009644 " fill="rgb(0,0,0)" stroke="rgb(0,0,0)" stroke-width="2" /><path d="M +64.848193526268,130.88234663009644 L 66.27134382724762,123.5293984413147 " fill="rgb(0,0,0)" stroke="rgb(0,0,0)" stroke-width="2" /><path d="M +66.27134382724762,123.5293984413147 L 66.27134382724762,117.64704585075378 " fill="rgb(0,0,0)" stroke="rgb(0,0,0)" stroke-width="2" /><path d="M +66.27134382724762,117.64704585075378 L 64.37380784191191,114.70585465431213 " fill="rgb(0,0,0)" stroke="rgb(0,0,0)" stroke-width="2" /><path d="M +64.37380784191191,114.70585465431213 L 62.00189315713942,117.64704585075378 " fill="rgb(0,0,0)" stroke="rgb(0,0,0)" stroke-width="2" /><path d="M +62.00189315713942,117.64704585075378 L 59.62997847236693,130.88234663009644 " fill="rgb(0,0,0)" stroke="rgb(0,0,0)" stroke-width="2" /><path d="M +59.62997847236693,130.88234663009644 L 57.25806378759444,151.47056579589844 " fill="rgb(0,0,0)" stroke="rgb(0,0,0)" stroke-width="2" /><path d="M +57.25806378759444,151.47056579589844 L 56.30929195322096,170.588219165802 " fill="rgb(0,0,0)" stroke="rgb(0,0,0)" stroke-width="2" /><path d="M +56.30929195322096,170.588219165802 L 56.30929195322096,179.41176295280457 " fill="rgb(0,0,0)" stroke="rgb(0,0,0)" stroke-width="2" /><path d="M +56.30929195322096,179.41176295280457 L 58.68121408857405,189.70587253570557 " fill="rgb(0,0,0)" stroke="rgb(0,0,0)" stroke-width="2" /><path d="M +58.68121408857405,189.70587253570557 L 62.47627907432616,194.11762952804565 " fill="rgb(0,0,0)" stroke="rgb(0,0,0)" stroke-width="2" /><path d="M +62.47627907432616,194.11762952804565 L 66.745729977265,194.11762952804565 " fill="rgb(0,0,0)" stroke="rgb(0,0,0)" stroke-width="2" /><path d="M +66.745729977265,194.11762952804565 L 71.96394526399672,189.70587253570557 " fill="rgb(0,0,0)" stroke="rgb(0,0,0)" stroke-width="2" /><path d="M +71.96394526399672,189.70587253570557 L 77.18216055072844,182.35292434692383 " fill="rgb(0,0,0)" stroke="rgb(0,0,0)" stroke-width="2" /><path d="M +77.18216055072844,182.35292434692383 L 77.18216055072844,182.35292434692383 " fill="rgb(0,0,0)" stroke="rgb(0,0,0)" stroke-width="2" /><path d="M 116.55596815980971,135.29410362243652 " fill="rgb(0,0,0)" stroke="rgb(0,0,0)" stroke-width="2" /><path d="M +116.55596815980971,135.29410362243652 L 114.65843939222395,132.35291242599487 " fill="rgb(0,0,0)" stroke="rgb(0,0,0)" stroke-width="2" /><path d="M +114.65843939222395,132.35291242599487 L 113.70966755785048,132.35291242599487 " fill="rgb(0,0,0)" stroke="rgb(0,0,0)" stroke-width="2" /><path d="M +113.70966755785048,132.35291242599487 L 113.23528909124434,130.88234663009644 " fill="rgb(0,0,0)" stroke="rgb(0,0,0)" stroke-width="2" /><path d="M +113.23528909124434,130.88234663009644 L 111.81213879026473,130.88234663009644 " fill="rgb(0,0,0)" stroke="rgb(0,0,0)" stroke-width="2" /><path d="M +111.81213879026473,130.88234663009644 L 108.01708148792386,136.76469922065735 " fill="rgb(0,0,0)" stroke="rgb(0,0,0)" stroke-width="2" /><path d="M +108.01708148792386,136.76469922065735 L 106.11953758634627,152.94116139411926 " fill="rgb(0,0,0)" stroke="rgb(0,0,0)" stroke-width="2" /><path d="M +106.11953758634627,152.94116139411926 L 105.17078065313399,163.23527097702026 " fill="rgb(0,0,0)" stroke="rgb(0,0,0)" stroke-width="2" /><path d="M +105.17078065313399,163.23527097702026 L 104.69638716895133,179.41176295280457 " fill="rgb(0,0,0)" stroke="rgb(0,0,0)" stroke-width="2" /><path d="M +104.69638716895133,179.41176295280457 L 105.17078053671867,185.29411554336548 " fill="rgb(0,0,0)" stroke="rgb(0,0,0)" stroke-width="2" /><path d="M +105.17078053671867,185.29411554336548 L 106.11953746993095,185.29411554336548 " fill="rgb(0,0,0)" stroke="rgb(0,0,0)" stroke-width="2" /><path d="M +106.11953746993095,185.29411554336548 L 106.59393083769828,182.35292434692383 " fill="rgb(0,0,0)" stroke="rgb(0,0,0)" stroke-width="2" /><path d="M +106.59393083769828,182.35292434692383 L 108.0170811386779,172.05881476402283 " fill="rgb(0,0,0)" stroke="rgb(0,0,0)" stroke-width="2" /><path d="M +108.0170811386779,172.05881476402283 L 108.96583807189018,158.82351398468018 " fill="rgb(0,0,0)" stroke="rgb(0,0,0)" stroke-width="2" /><path d="M +108.96583807189018,158.82351398468018 L 109.91460990626365,144.1176176071167 " fill="rgb(0,0,0)" stroke="rgb(0,0,0)" stroke-width="2" /><path d="M +109.91460990626365,144.1176176071167 L 110.86336683947593,126.47055983543396 " fill="rgb(0,0,0)" stroke="rgb(0,0,0)" stroke-width="2" /><path d="M +110.86336683947593,126.47055983543396 L 111.33776020724326,105.88234066963196 " fill="rgb(0,0,0)" stroke="rgb(0,0,0)" stroke-width="2" /><path d="M +111.33776020724326,105.88234066963196 L 111.8121386738494,88.23528289794922 " fill="rgb(0,0,0)" stroke="rgb(0,0,0)" stroke-width="2" /><path d="M +111.8121386738494,88.23528289794922 L 111.33776020724326,72.0588207244873 " fill="rgb(0,0,0)" stroke="rgb(0,0,0)" stroke-width="2" /><path d="M +111.33776020724326,72.0588207244873 L 110.86336672306061,63.23527693748474 " fill="rgb(0,0,0)" stroke="rgb(0,0,0)" stroke-width="2" /><path d="M +110.86336672306061,63.23527693748474 L 110.86336672306061,61.764681339263916 " fill="rgb(0,0,0)" stroke="rgb(0,0,0)" stroke-width="2" /><path d="M +110.86336672306061,61.764681339263916 L 110.86336672306061,66.17646813392639 " fill="rgb(0,0,0)" stroke="rgb(0,0,0)" stroke-width="2" /><path d="M +110.86336672306061,66.17646813392639 L 110.86336672306061,82.3529303073883 " fill="rgb(0,0,0)" stroke="rgb(0,0,0)" stroke-width="2" /><path d="M +110.86336672306061,82.3529303073883 L 111.33776009082794,104.41174507141113 " fill="rgb(0,0,0)" stroke="rgb(0,0,0)" stroke-width="2" /><path d="M +111.33776009082794,104.41174507141113 L 112.76091039180756,126.47055983543396 " fill="rgb(0,0,0)" stroke="rgb(0,0,0)" stroke-width="2" /><path d="M +112.76091039180756,126.47055983543396 L 114.18406069278717,145.58821320533752 " fill="rgb(0,0,0)" stroke="rgb(0,0,0)" stroke-width="2" /><path d="M +114.18406069278717,145.58821320533752 L 115.60721099376678,161.76470518112183 " fill="rgb(0,0,0)" stroke="rgb(0,0,0)" stroke-width="2" /><path d="M +115.60721099376678,161.76470518112183 L 117.50473976135254,174.9999761581421 " fill="rgb(0,0,0)" stroke="rgb(0,0,0)" stroke-width="2" /><path d="M +117.50473976135254,174.9999761581421 L 118.92789006233215,185.29411554336548 " fill="rgb(0,0,0)" stroke="rgb(0,0,0)" stroke-width="2" /><path d="M +118.92789006233215,185.29411554336548 L 119.87666189670563,191.1764681339264 " fill="rgb(0,0,0)" stroke="rgb(0,0,0)" stroke-width="2" /><path d="M +119.87666189670563,191.1764681339264 L 119.87666189670563,191.1764681339264 " fill="rgb(0,0,0)" stroke="rgb(0,0,0)" stroke-width="2" /><path d="M 122.24856913089752,138.2352650165558 " fill="rgb(0,0,0)" stroke="rgb(0,0,0)" stroke-width="2" /><path d="M +122.24856913089752,138.2352650165558 L 122.24856913089752,136.76469922065735 " fill="rgb(0,0,0)" stroke="rgb(0,0,0)" stroke-width="2" /><path d="M +122.24856913089752,136.76469922065735 L 122.24856913089752,138.2352650165558 " fill="rgb(0,0,0)" stroke="rgb(0,0,0)" stroke-width="2" /><path d="M +122.24856913089752,138.2352650165558 L 121.77419066429138,142.64705181121826 " fill="rgb(0,0,0)" stroke="rgb(0,0,0)" stroke-width="2" /><path d="M +121.77419066429138,142.64705181121826 L 121.77419066429138,154.4117569923401 " fill="rgb(0,0,0)" stroke="rgb(0,0,0)" stroke-width="2" /><path d="M +121.77419066429138,154.4117569923401 L 122.72296249866486,174.9999761581421 " fill="rgb(0,0,0)" stroke="rgb(0,0,0)" stroke-width="2" /><path d="M +122.72296249866486,174.9999761581421 L 123.197340965271,180.882328748703 " fill="rgb(0,0,0)" stroke="rgb(0,0,0)" stroke-width="2" /><path d="M +123.197340965271,180.882328748703 L 123.197340965271,180.882328748703 " fill="rgb(0,0,0)" stroke="rgb(0,0,0)" stroke-width="2" /><path d="M 121.77419066429138,99.99998807907104 " fill="rgb(0,0,0)" stroke="rgb(0,0,0)" stroke-width="2" /><path d="M +121.77419066429138,99.99998807907104 L 121.29981219768524,99.99998807907104 " fill="rgb(0,0,0)" stroke="rgb(0,0,0)" stroke-width="2" /><path d="M +121.29981219768524,99.99998807907104 L 122.24856913089752,104.41174507141113 " fill="rgb(0,0,0)" stroke="rgb(0,0,0)" stroke-width="2" /><path d="M +122.24856913089752,104.41174507141113 L 122.24856913089752,104.41174507141113 " fill="rgb(0,0,0)" stroke="rgb(0,0,0)" stroke-width="2" /><path d="M 137.90322244167328,122.05880284309387 " fill="rgb(0,0,0)" stroke="rgb(0,0,0)" stroke-width="2" /><path d="M +137.90322244167328,122.05880284309387 L 137.42884397506714,122.05880284309387 " fill="rgb(0,0,0)" stroke="rgb(0,0,0)" stroke-width="2" /><path d="M +137.42884397506714,122.05880284309387 L 135.53130007348955,138.2352650165558 " fill="rgb(0,0,0)" stroke="rgb(0,0,0)" stroke-width="2" /><path d="M +135.53130007348955,138.2352650165558 L 133.15939283929765,182.35292434692383 " fill="rgb(0,0,0)" stroke="rgb(0,0,0)" stroke-width="2" /><path d="M +133.15939283929765,182.35292434692383 L 132.684999355115,192.64703392982483 " fill="rgb(0,0,0)" stroke="rgb(0,0,0)" stroke-width="2" /><path d="M +132.684999355115,192.64703392982483 L 133.63377118948847,195.58822512626648 " fill="rgb(0,0,0)" stroke="rgb(0,0,0)" stroke-width="2" /><path d="M +133.63377118948847,195.58822512626648 L 134.58254302386194,192.64703392982483 " fill="rgb(0,0,0)" stroke="rgb(0,0,0)" stroke-width="2" /><path d="M +134.58254302386194,192.64703392982483 L 135.05692149046808,185.29411554336548 " fill="rgb(0,0,0)" stroke="rgb(0,0,0)" stroke-width="2" /><path d="M +135.05692149046808,185.29411554336548 L 136.00569332484156,172.05881476402283 " fill="rgb(0,0,0)" stroke="rgb(0,0,0)" stroke-width="2" /><path d="M +136.00569332484156,172.05881476402283 L 136.4800717914477,154.4117569923401 " fill="rgb(0,0,0)" stroke="rgb(0,0,0)" stroke-width="2" /><path d="M +136.4800717914477,154.4117569923401 L 137.42884362582117,132.35291242599487 " fill="rgb(0,0,0)" stroke="rgb(0,0,0)" stroke-width="2" /><path d="M +137.42884362582117,132.35291242599487 L 138.37760055903345,104.41174507141113 " fill="rgb(0,0,0)" stroke="rgb(0,0,0)" stroke-width="2" /><path d="M +138.37760055903345,104.41174507141113 L 139.80075086001307,79.41173911094666 " fill="rgb(0,0,0)" stroke="rgb(0,0,0)" stroke-width="2" /><path d="M +139.80075086001307,79.41173911094666 L 140.2751442277804,64.70587253570557 " fill="rgb(0,0,0)" stroke="rgb(0,0,0)" stroke-width="2" /><path d="M +140.2751442277804,64.70587253570557 L 140.2751442277804,60.29411554336548 " fill="rgb(0,0,0)" stroke="rgb(0,0,0)" stroke-width="2" /><path d="M +140.2751442277804,60.29411554336548 L 139.80075074359775,60.29411554336548 " fill="rgb(0,0,0)" stroke="rgb(0,0,0)" stroke-width="2" /><path d="M +139.80075074359775,60.29411554336548 L 139.80075074359775,69.11762952804565 " fill="rgb(0,0,0)" stroke="rgb(0,0,0)" stroke-width="2" /><path d="M +139.80075074359775,69.11762952804565 L 139.3263722769916,91.17644429206848 " fill="rgb(0,0,0)" stroke="rgb(0,0,0)" stroke-width="2" /><path d="M +139.3263722769916,91.17644429206848 L 139.80075074359775,116.17645025253296 " fill="rgb(0,0,0)" stroke="rgb(0,0,0)" stroke-width="2" /><path d="M +139.80075074359775,116.17645025253296 L 140.74952257797122,141.17645621299744 " fill="rgb(0,0,0)" stroke="rgb(0,0,0)" stroke-width="2" /><path d="M +140.74952257797122,141.17645621299744 L 142.17267287895083,157.35291838645935 " fill="rgb(0,0,0)" stroke="rgb(0,0,0)" stroke-width="2" /><path d="M +142.17267287895083,157.35291838645935 L 144.0702016465366,164.7058665752411 " fill="rgb(0,0,0)" stroke="rgb(0,0,0)" stroke-width="2" /><path d="M +144.0702016465366,164.7058665752411 L 145.96773041412234,169.11762356758118 " fill="rgb(0,0,0)" stroke="rgb(0,0,0)" stroke-width="2" /><path d="M +145.96773041412234,169.11762356758118 L 146.44212378188968,169.11762356758118 " fill="rgb(0,0,0)" stroke="rgb(0,0,0)" stroke-width="2" /><path d="M +146.44212378188968,169.11762356758118 L 146.44212378188968,169.11762356758118 " fill="rgb(0,0,0)" stroke="rgb(0,0,0)" stroke-width="2" /><path d="M 147.8652740828693,132.35291242599487 " fill="rgb(0,0,0)" stroke="rgb(0,0,0)" stroke-width="2" /><path d="M +147.8652740828693,132.35291242599487 L 147.8652740828693,133.8235080242157 " fill="rgb(0,0,0)" stroke="rgb(0,0,0)" stroke-width="2" /><path d="M +147.8652740828693,133.8235080242157 L 147.39088059868664,142.64705181121826 " fill="rgb(0,0,0)" stroke="rgb(0,0,0)" stroke-width="2" /><path d="M +147.39088059868664,142.64705181121826 L 147.39088059868664,167.64705777168274 " fill="rgb(0,0,0)" stroke="rgb(0,0,0)" stroke-width="2" /><path d="M +147.39088059868664,167.64705777168274 L 148.3396524330601,176.47057175636292 " fill="rgb(0,0,0)" stroke="rgb(0,0,0)" stroke-width="2" /><path d="M +148.3396524330601,176.47057175636292 L 149.28842426743358,180.882328748703 " fill="rgb(0,0,0)" stroke="rgb(0,0,0)" stroke-width="2" /><path d="M +149.28842426743358,180.882328748703 L 149.76280273403972,182.35292434692383 " fill="rgb(0,0,0)" stroke="rgb(0,0,0)" stroke-width="2" /><path d="M +149.76280273403972,182.35292434692383 L 150.23718120064586,176.47057175636292 " fill="rgb(0,0,0)" stroke="rgb(0,0,0)" stroke-width="2" /><path d="M +150.23718120064586,176.47057175636292 L 151.18595303501934,166.1764621734619 " fill="rgb(0,0,0)" stroke="rgb(0,0,0)" stroke-width="2" /><path d="M +151.18595303501934,166.1764621734619 L 152.60910333599895,154.4117569923401 " fill="rgb(0,0,0)" stroke="rgb(0,0,0)" stroke-width="2" /><path d="M +152.60910333599895,154.4117569923401 L 154.5066321035847,147.05880880355835 " fill="rgb(0,0,0)" stroke="rgb(0,0,0)" stroke-width="2" /><path d="M +154.5066321035847,147.05880880355835 L 155.92978240456432,147.05880880355835 " fill="rgb(0,0,0)" stroke="rgb(0,0,0)" stroke-width="2" /><path d="M +155.92978240456432,147.05880880355835 L 157.82732607331127,152.94116139411926 " fill="rgb(0,0,0)" stroke="rgb(0,0,0)" stroke-width="2" /><path d="M +157.82732607331127,152.94116139411926 L 159.25047637429088,161.76470518112183 " fill="rgb(0,0,0)" stroke="rgb(0,0,0)" stroke-width="2" /><path d="M +159.25047637429088,161.76470518112183 L 161.14800514187664,172.05881476402283 " fill="rgb(0,0,0)" stroke="rgb(0,0,0)" stroke-width="2" /><path d="M +161.14800514187664,172.05881476402283 L 162.57115544285625,180.882328748703 " fill="rgb(0,0,0)" stroke="rgb(0,0,0)" stroke-width="2" /><path d="M +162.57115544285625,180.882328748703 L 163.99430574383587,185.29411554336548 " fill="rgb(0,0,0)" stroke="rgb(0,0,0)" stroke-width="2" /><path d="M +163.99430574383587,185.29411554336548 L 163.99430574383587,185.29411554336548 " fill="rgb(0,0,0)" stroke="rgb(0,0,0)" stroke-width="2" /><path d="M 172.05881418194622,57.35292434692383 " fill="rgb(0,0,0)" stroke="rgb(0,0,0)" stroke-width="2" /><path d="M +172.05881418194622,57.35292434692383 L 171.11005724873394,64.70587253570557 " fill="rgb(0,0,0)" stroke="rgb(0,0,0)" stroke-width="2" /><path d="M +171.11005724873394,64.70587253570557 L 171.11005724873394,69.11762952804565 " fill="rgb(0,0,0)" stroke="rgb(0,0,0)" stroke-width="2" /><path d="M +171.11005724873394,69.11762952804565 L 170.63566376455128,76.47057771682739 " fill="rgb(0,0,0)" stroke="rgb(0,0,0)" stroke-width="2" /><path d="M +170.63566376455128,76.47057771682739 L 172.0588140655309,119.11764144897461 " fill="rgb(0,0,0)" stroke="rgb(0,0,0)" stroke-width="2" /><path d="M +172.0588140655309,119.11764144897461 L 173.00758589990437,136.76469922065735 " fill="rgb(0,0,0)" stroke="rgb(0,0,0)" stroke-width="2" /><path d="M +173.00758589990437,136.76469922065735 L 174.43073620088398,148.52940440177917 " fill="rgb(0,0,0)" stroke="rgb(0,0,0)" stroke-width="2" /><path d="M +174.43073620088398,148.52940440177917 L 174.43073620088398,148.52940440177917 " fill="rgb(0,0,0)" stroke="rgb(0,0,0)" stroke-width="2" /><path d="M 181.54648770578206,67.64703392982483 " fill="rgb(0,0,0)" stroke="rgb(0,0,0)" stroke-width="2" /><path d="M +181.54648770578206,67.64703392982483 L 181.54648770578206,70.58822512626648 " fill="rgb(0,0,0)" stroke="rgb(0,0,0)" stroke-width="2" /><path d="M +181.54648770578206,70.58822512626648 L 181.54648770578206,72.0588207244873 " fill="rgb(0,0,0)" stroke="rgb(0,0,0)" stroke-width="2" /><path d="M +181.54648770578206,72.0588207244873 L 181.07210923917592,76.47057771682739 " fill="rgb(0,0,0)" stroke="rgb(0,0,0)" stroke-width="2" /><path d="M +181.07210923917592,76.47057771682739 L 181.07210923917592,79.41173911094666 " fill="rgb(0,0,0)" stroke="rgb(0,0,0)" stroke-width="2" /><path d="M +181.07210923917592,79.41173911094666 L 179.6489589381963,107.35293626785278 " fill="rgb(0,0,0)" stroke="rgb(0,0,0)" stroke-width="2" /><path d="M +179.6489589381963,107.35293626785278 L 180.12333740480244,148.52940440177917 " fill="rgb(0,0,0)" stroke="rgb(0,0,0)" stroke-width="2" /><path d="M +180.12333740480244,148.52940440177917 L 180.59771587140858,161.76470518112183 " fill="rgb(0,0,0)" stroke="rgb(0,0,0)" stroke-width="2" /><path d="M +180.59771587140858,161.76470518112183 L 180.12333740480244,170.588219165802 " fill="rgb(0,0,0)" stroke="rgb(0,0,0)" stroke-width="2" /><path d="M +180.12333740480244,170.588219165802 L 179.6489589381963,173.52941036224365 " fill="rgb(0,0,0)" stroke="rgb(0,0,0)" stroke-width="2" /><path d="M +179.6489589381963,173.52941036224365 L 179.6489589381963,173.52941036224365 " fill="rgb(0,0,0)" stroke="rgb(0,0,0)" stroke-width="2" /><path d="M 175.37950803525746,166.1764621734619 " fill="rgb(0,0,0)" stroke="rgb(0,0,0)" stroke-width="2" /><path d="M +175.37950803525746,166.1764621734619 L 175.37950803525746,164.7058665752411 " fill="rgb(0,0,0)" stroke="rgb(0,0,0)" stroke-width="2" /><path d="M +175.37950803525746,164.7058665752411 L 175.8538865018636,164.7058665752411 " fill="rgb(0,0,0)" stroke="rgb(0,0,0)" stroke-width="2" /><path d="M +175.8538865018636,164.7058665752411 L 177.75141526944935,164.7058665752411 " fill="rgb(0,0,0)" stroke="rgb(0,0,0)" stroke-width="2" /><path d="M +177.75141526944935,164.7058665752411 L 181.07210923917592,164.7058665752411 " fill="rgb(0,0,0)" stroke="rgb(0,0,0)" stroke-width="2" /><path d="M +181.07210923917592,164.7058665752411 L 183.4440164733678,164.7058665752411 " fill="rgb(0,0,0)" stroke="rgb(0,0,0)" stroke-width="2" /><path d="M +183.4440164733678,164.7058665752411 L 188.1878458429128,161.76470518112183 " fill="rgb(0,0,0)" stroke="rgb(0,0,0)" stroke-width="2" /><path d="M +188.1878458429128,161.76470518112183 L 189.13661767728627,158.82351398468018 " fill="rgb(0,0,0)" stroke="rgb(0,0,0)" stroke-width="2" /><path d="M +189.13661767728627,158.82351398468018 L 189.13661767728627,158.82351398468018 " fill="rgb(0,0,0)" stroke="rgb(0,0,0)" stroke-width="2" /><path d="M 229.93356813676655,135.29410362243652 " fill="rgb(0,0,0)" stroke="rgb(0,0,0)" stroke-width="2" /><path d="M +229.93356813676655,135.29410362243652 L 230.4079615045339,132.35291242599487 " fill="rgb(0,0,0)" stroke="rgb(0,0,0)" stroke-width="2" /><path d="M +230.4079615045339,132.35291242599487 L 230.4079615045339,130.88234663009644 " fill="rgb(0,0,0)" stroke="rgb(0,0,0)" stroke-width="2" /><path d="M +230.4079615045339,130.88234663009644 L 230.4079615045339,129.4117510318756 " fill="rgb(0,0,0)" stroke="rgb(0,0,0)" stroke-width="2" /><path d="M +230.4079615045339,129.4117510318756 L 228.98481120355427,126.47055983543396 " fill="rgb(0,0,0)" stroke="rgb(0,0,0)" stroke-width="2" /><path d="M +228.98481120355427,126.47055983543396 L 227.56166090257466,126.47055983543396 " fill="rgb(0,0,0)" stroke="rgb(0,0,0)" stroke-width="2" /><path d="M +227.56166090257466,126.47055983543396 L 225.6641470361501,129.4117510318756 " fill="rgb(0,0,0)" stroke="rgb(0,0,0)" stroke-width="2" /><path d="M +225.6641470361501,129.4117510318756 L 222.81784620136023,144.1176176071167 " fill="rgb(0,0,0)" stroke="rgb(0,0,0)" stroke-width="2" /><path d="M +222.81784620136023,144.1176176071167 L 220.92030229978263,155.8823525905609 " fill="rgb(0,0,0)" stroke="rgb(0,0,0)" stroke-width="2" /><path d="M +220.92030229978263,155.8823525905609 L 220.44590881559998,167.64705777168274 " fill="rgb(0,0,0)" stroke="rgb(0,0,0)" stroke-width="2" /><path d="M +220.44590881559998,167.64705777168274 L 220.44590881559998,173.52941036224365 " fill="rgb(0,0,0)" stroke="rgb(0,0,0)" stroke-width="2" /><path d="M +220.44590881559998,173.52941036224365 L 221.8690591165796,174.9999761581421 " fill="rgb(0,0,0)" stroke="rgb(0,0,0)" stroke-width="2" /><path d="M +221.8690591165796,174.9999761581421 L 223.2922094175592,172.05881476402283 " fill="rgb(0,0,0)" stroke="rgb(0,0,0)" stroke-width="2" /><path d="M +223.2922094175592,172.05881476402283 L 225.18975308630615,164.7058665752411 " fill="rgb(0,0,0)" stroke="rgb(0,0,0)" stroke-width="2" /><path d="M +225.18975308630615,164.7058665752411 L 226.61290338728577,155.8823525905609 " fill="rgb(0,0,0)" stroke="rgb(0,0,0)" stroke-width="2" /><path d="M +226.61290338728577,155.8823525905609 L 228.03605368826538,148.52940440177917 " fill="rgb(0,0,0)" stroke="rgb(0,0,0)" stroke-width="2" /><path d="M +228.03605368826538,148.52940440177917 L 229.93356755468994,136.76469922065735 " fill="rgb(0,0,0)" stroke="rgb(0,0,0)" stroke-width="2" /><path d="M +229.93356755468994,136.76469922065735 L 230.40796092245728,132.35291242599487 " fill="rgb(0,0,0)" stroke="rgb(0,0,0)" stroke-width="2" /><path d="M +230.40796092245728,132.35291242599487 L 230.40796092245728,130.88234663009644 " fill="rgb(0,0,0)" stroke="rgb(0,0,0)" stroke-width="2" /><path d="M +230.40796092245728,130.88234663009644 L 230.40796092245728,138.2352650165558 " fill="rgb(0,0,0)" stroke="rgb(0,0,0)" stroke-width="2" /><path d="M +230.40796092245728,138.2352650165558 L 230.40796092245728,152.94116139411926 " fill="rgb(0,0,0)" stroke="rgb(0,0,0)" stroke-width="2" /><path d="M +230.40796092245728,152.94116139411926 L 230.8823542902246,172.05881476402283 " fill="rgb(0,0,0)" stroke="rgb(0,0,0)" stroke-width="2" /><path d="M +230.8823542902246,172.05881476402283 L 231.8311112234369,191.1764681339264 " fill="rgb(0,0,0)" stroke="rgb(0,0,0)" stroke-width="2" /><path d="M +231.8311112234369,191.1764681339264 L 232.77986815664917,204.41173911094666 " fill="rgb(0,0,0)" stroke="rgb(0,0,0)" stroke-width="2" /><path d="M +232.77986815664917,204.41173911094666 L 233.72865489218384,217.6470398902893 " fill="rgb(0,0,0)" stroke="rgb(0,0,0)" stroke-width="2" /><path d="M +233.72865489218384,217.6470398902893 L 233.72865489218384,217.6470398902893 " fill="rgb(0,0,0)" stroke="rgb(0,0,0)" stroke-width="2" /><path d="M 240.37001302931458,144.1176176071167 " fill="rgb(0,0,0)" stroke="rgb(0,0,0)" stroke-width="2" /><path d="M +240.37001302931458,144.1176176071167 L 240.37001302931458,145.58821320533752 " fill="rgb(0,0,0)" stroke="rgb(0,0,0)" stroke-width="2" /><path d="M +240.37001302931458,145.58821320533752 L 240.37001302931458,151.47056579589844 " fill="rgb(0,0,0)" stroke="rgb(0,0,0)" stroke-width="2" /><path d="M +240.37001302931458,151.47056579589844 L 241.7931633302942,189.70587253570557 " fill="rgb(0,0,0)" stroke="rgb(0,0,0)" stroke-width="2" /><path d="M +241.7931633302942,189.70587253570557 L 243.69070699904114,210.29409170150757 " fill="rgb(0,0,0)" stroke="rgb(0,0,0)" stroke-width="2" /><path d="M +243.69070699904114,210.29409170150757 L 245.11385730002075,227.9411494731903 " fill="rgb(0,0,0)" stroke="rgb(0,0,0)" stroke-width="2" /><path d="M +245.11385730002075,227.9411494731903 L 245.5882208654657,241.17645025253296 " fill="rgb(0,0,0)" stroke="rgb(0,0,0)" stroke-width="2" /><path d="M +245.5882208654657,241.17645025253296 L 246.06261423323303,248.5293984413147 " fill="rgb(0,0,0)" stroke="rgb(0,0,0)" stroke-width="2" /><path d="M +246.06261423323303,248.5293984413147 L 245.58822074905038,252.94115543365479 " fill="rgb(0,0,0)" stroke="rgb(0,0,0)" stroke-width="2" /><path d="M +245.58822074905038,252.94115543365479 L 244.6394638158381,251.47055983543396 " fill="rgb(0,0,0)" stroke="rgb(0,0,0)" stroke-width="2" /><path d="M +244.6394638158381,251.47055983543396 L 244.16507033165544,241.17645025253296 " fill="rgb(0,0,0)" stroke="rgb(0,0,0)" stroke-width="2" /><path d="M +244.16507033165544,241.17645025253296 L 243.69070688262582,222.0587968826294 " fill="rgb(0,0,0)" stroke="rgb(0,0,0)" stroke-width="2" /><path d="M +243.69070688262582,222.0587968826294 L 242.2675565816462,198.52938652038574 " fill="rgb(0,0,0)" stroke="rgb(0,0,0)" stroke-width="2" /><path d="M +242.2675565816462,198.52938652038574 L 241.79316309746355,172.05881476402283 " fill="rgb(0,0,0)" stroke="rgb(0,0,0)" stroke-width="2" /><path d="M +241.79316309746355,172.05881476402283 L 241.79316309746355,150.0 " fill="rgb(0,0,0)" stroke="rgb(0,0,0)" stroke-width="2" /><path d="M +241.79316309746355,150.0 L 243.21631339844316,138.2352650165558 " fill="rgb(0,0,0)" stroke="rgb(0,0,0)" stroke-width="2" /><path d="M +243.21631339844316,138.2352650165558 L 244.63946369942278,136.76469922065735 " fill="rgb(0,0,0)" stroke="rgb(0,0,0)" stroke-width="2" /><path d="M +244.63946369942278,136.76469922065735 L 246.53700736816972,142.64705181121826 " fill="rgb(0,0,0)" stroke="rgb(0,0,0)" stroke-width="2" /><path d="M +246.53700736816972,142.64705181121826 L 248.90891460236162,152.94116139411926 " fill="rgb(0,0,0)" stroke="rgb(0,0,0)" stroke-width="2" /><path d="M +248.90891460236162,152.94116139411926 L 250.33206490334123,163.23527097702026 " fill="rgb(0,0,0)" stroke="rgb(0,0,0)" stroke-width="2" /><path d="M +250.33206490334123,163.23527097702026 L 250.33206490334123,170.588219165802 " fill="rgb(0,0,0)" stroke="rgb(0,0,0)" stroke-width="2" /><path d="M +250.33206490334123,170.588219165802 L 248.90891460236162,174.9999761581421 " fill="rgb(0,0,0)" stroke="rgb(0,0,0)" stroke-width="2" /><path d="M +248.90891460236162,174.9999761581421 L 246.06261376757175,177.94116735458374 " fill="rgb(0,0,0)" stroke="rgb(0,0,0)" stroke-width="2" /><path d="M +246.06261376757175,177.94116735458374 L 243.69070653337985,177.94116735458374 " fill="rgb(0,0,0)" stroke="rgb(0,0,0)" stroke-width="2" /><path d="M +243.69070653337985,177.94116735458374 L 240.84440569858998,176.47057175636292 " fill="rgb(0,0,0)" stroke="rgb(0,0,0)" stroke-width="2" /><path d="M +240.84440569858998,176.47057175636292 L 239.8956189630553,173.52941036224365 " fill="rgb(0,0,0)" stroke="rgb(0,0,0)" stroke-width="2" /><path d="M +239.8956189630553,173.52941036224365 L 240.37001233082265,170.588219165802 " fill="rgb(0,0,0)" stroke="rgb(0,0,0)" stroke-width="2" /><path d="M +240.37001233082265,170.588219165802 L 240.37001233082265,170.588219165802 " fill="rgb(0,0,0)" stroke="rgb(0,0,0)" stroke-width="2" /><path d="M 256.49905900936574,150.0 " fill="rgb(0,0,0)" stroke="rgb(0,0,0)" stroke-width="2" /><path d="M +256.49905900936574,150.0 L 256.49905900936574,151.47056579589844 " fill="rgb(0,0,0)" stroke="rgb(0,0,0)" stroke-width="2" /><path d="M +256.49905900936574,151.47056579589844 L 256.0246655251831,155.8823525905609 " fill="rgb(0,0,0)" stroke="rgb(0,0,0)" stroke-width="2" /><path d="M +256.0246655251831,155.8823525905609 L 255.55027204100043,191.1764681339264 " fill="rgb(0,0,0)" stroke="rgb(0,0,0)" stroke-width="2" /><path d="M +255.55027204100043,191.1764681339264 L 256.4990587765351,224.99998807907104 " fill="rgb(0,0,0)" stroke="rgb(0,0,0)" stroke-width="2" /><path d="M +256.4990587765351,224.99998807907104 L 256.4990587765351,236.76469326019287 " fill="rgb(0,0,0)" stroke="rgb(0,0,0)" stroke-width="2" /><path d="M +256.4990587765351,236.76469326019287 L 256.4990587765351,245.58820724487305 " fill="rgb(0,0,0)" stroke="rgb(0,0,0)" stroke-width="2" /><path d="M +256.4990587765351,245.58820724487305 L 256.02466529235244,248.5293984413147 " fill="rgb(0,0,0)" stroke="rgb(0,0,0)" stroke-width="2" /><path d="M +256.02466529235244,248.5293984413147 L 255.55027180816978,239.70585465431213 " fill="rgb(0,0,0)" stroke="rgb(0,0,0)" stroke-width="2" /><path d="M +255.55027180816978,239.70585465431213 L 255.55027180816978,226.47058367729187 " fill="rgb(0,0,0)" stroke="rgb(0,0,0)" stroke-width="2" /><path d="M +255.55027180816978,226.47058367729187 L 254.6015148749575,208.82352590560913 " fill="rgb(0,0,0)" stroke="rgb(0,0,0)" stroke-width="2" /><path d="M +254.6015148749575,208.82352590560913 L 253.65275794174522,186.76468133926392 " fill="rgb(0,0,0)" stroke="rgb(0,0,0)" stroke-width="2" /><path d="M +253.65275794174522,186.76468133926392 L 253.17836445756257,161.76470518112183 " fill="rgb(0,0,0)" stroke="rgb(0,0,0)" stroke-width="2" /><path d="M +253.17836445756257,161.76470518112183 L 253.6527578253299,145.58821320533752 " fill="rgb(0,0,0)" stroke="rgb(0,0,0)" stroke-width="2" /><path d="M +253.6527578253299,145.58821320533752 L 255.0759081263095,138.2352650165558 " fill="rgb(0,0,0)" stroke="rgb(0,0,0)" stroke-width="2" /><path d="M +255.0759081263095,138.2352650165558 L 256.9734219927341,138.2352650165558 " fill="rgb(0,0,0)" stroke="rgb(0,0,0)" stroke-width="2" /><path d="M +256.9734219927341,138.2352650165558 L 259.34535902924836,144.1176176071167 " fill="rgb(0,0,0)" stroke="rgb(0,0,0)" stroke-width="2" /><path d="M +259.34535902924836,144.1176176071167 L 261.71726626344025,155.8823525905609 " fill="rgb(0,0,0)" stroke="rgb(0,0,0)" stroke-width="2" /><path d="M +261.71726626344025,155.8823525905609 L 262.66602319665253,164.7058665752411 " fill="rgb(0,0,0)" stroke="rgb(0,0,0)" stroke-width="2" /><path d="M +262.66602319665253,164.7058665752411 L 262.66602319665253,170.588219165802 " fill="rgb(0,0,0)" stroke="rgb(0,0,0)" stroke-width="2" /><path d="M +262.66602319665253,170.588219165802 L 261.2428728956729,174.9999761581421 " fill="rgb(0,0,0)" stroke="rgb(0,0,0)" stroke-width="2" /><path d="M +261.2428728956729,174.9999761581421 L 258.870965661481,176.47057175636292 " fill="rgb(0,0,0)" stroke="rgb(0,0,0)" stroke-width="2" /><path d="M +258.870965661481,176.47057175636292 L 256.4990584272891,176.47057175636292 " fill="rgb(0,0,0)" stroke="rgb(0,0,0)" stroke-width="2" /><path d="M +256.4990584272891,176.47057175636292 L 255.0759081263095,172.05881476402283 " fill="rgb(0,0,0)" stroke="rgb(0,0,0)" stroke-width="2" /><path d="M +255.0759081263095,172.05881476402283 L 255.0759081263095,170.588219165802 " fill="rgb(0,0,0)" stroke="rgb(0,0,0)" stroke-width="2" /><path d="M +255.0759081263095,170.588219165802 L 255.0759081263095,170.588219165802 " fill="rgb(0,0,0)" stroke="rgb(0,0,0)" stroke-width="2" /><path d="M 274.5256189722568,198.52938652038574 " fill="rgb(0,0,0)" stroke="rgb(0,0,0)" stroke-width="2" /><path d="M +274.5256189722568,198.52938652038574 L 274.0512254880741,198.52938652038574 " fill="rgb(0,0,0)" stroke="rgb(0,0,0)" stroke-width="2" /><path d="M +274.0512254880741,198.52938652038574 L 272.6280751870945,189.70587253570557 " fill="rgb(0,0,0)" stroke="rgb(0,0,0)" stroke-width="2" /><path d="M +272.6280751870945,189.70587253570557 L 268.35862428415567,164.7058665752411 " fill="rgb(0,0,0)" stroke="rgb(0,0,0)" stroke-width="2" /><path d="M +268.35862428415567,164.7058665752411 L 266.93547398317605,152.94116139411926 " fill="rgb(0,0,0)" stroke="rgb(0,0,0)" stroke-width="2" /><path d="M +266.93547398317605,152.94116139411926 L 265.9867170499638,145.58821320533752 " fill="rgb(0,0,0)" stroke="rgb(0,0,0)" stroke-width="2" /><path d="M +265.9867170499638,145.58821320533752 L 265.9867170499638,144.1176176071167 " fill="rgb(0,0,0)" stroke="rgb(0,0,0)" stroke-width="2" /><path d="M +265.9867170499638,144.1176176071167 L 266.93547398317605,144.1176176071167 " fill="rgb(0,0,0)" stroke="rgb(0,0,0)" stroke-width="2" /><path d="M +266.93547398317605,144.1176176071167 L 269.30738121736795,147.05880880355835 " fill="rgb(0,0,0)" stroke="rgb(0,0,0)" stroke-width="2" /><path d="M +269.30738121736795,147.05880880355835 L 271.2049248861149,150.0 " fill="rgb(0,0,0)" stroke="rgb(0,0,0)" stroke-width="2" /><path d="M +271.2049248861149,150.0 L 271.2049248861149,150.0 " fill="rgb(0,0,0)" stroke="rgb(0,0,0)" stroke-width="2" /><path d="M 288.2827135967091,155.8823525905609 " fill="rgb(0,0,0)" stroke="rgb(0,0,0)" stroke-width="2" /><path d="M +288.2827135967091,155.8823525905609 L 288.7571069644764,155.8823525905609 " fill="rgb(0,0,0)" stroke="rgb(0,0,0)" stroke-width="2" /><path d="M +288.7571069644764,155.8823525905609 L 288.7571069644764,154.4117569923401 " fill="rgb(0,0,0)" stroke="rgb(0,0,0)" stroke-width="2" /><path d="M +288.7571069644764,154.4117569923401 L 287.80832022894174,151.47056579589844 " fill="rgb(0,0,0)" stroke="rgb(0,0,0)" stroke-width="2" /><path d="M +287.80832022894174,151.47056579589844 L 282.5901123927906,155.8823525905609 " fill="rgb(0,0,0)" stroke="rgb(0,0,0)" stroke-width="2" /><path d="M +282.5901123927906,155.8823525905609 L 279.2694186558947,166.1764621734619 " fill="rgb(0,0,0)" stroke="rgb(0,0,0)" stroke-width="2" /><path d="M +279.2694186558947,166.1764621734619 L 276.8975114217028,179.41176295280457 " fill="rgb(0,0,0)" stroke="rgb(0,0,0)" stroke-width="2" /><path d="M +276.8975114217028,179.41176295280457 L 275.9487842908129,189.70587253570557 " fill="rgb(0,0,0)" stroke="rgb(0,0,0)" stroke-width="2" /><path d="M +275.9487842908129,189.70587253570557 L 275.9487842908129,197.0588207244873 " fill="rgb(0,0,0)" stroke="rgb(0,0,0)" stroke-width="2" /><path d="M +275.9487842908129,197.0588207244873 L 277.84629815723747,198.52938652038574 " fill="rgb(0,0,0)" stroke="rgb(0,0,0)" stroke-width="2" /><path d="M +277.84629815723747,198.52938652038574 L 280.21820539142936,195.58822512626648 " fill="rgb(0,0,0)" stroke="rgb(0,0,0)" stroke-width="2" /><path d="M +280.21820539142936,195.58822512626648 L 283.0645059933886,186.76468133926392 " fill="rgb(0,0,0)" stroke="rgb(0,0,0)" stroke-width="2" /><path d="M +283.0645059933886,186.76468133926392 L 284.4876860966906,179.41176295280457 " fill="rgb(0,0,0)" stroke="rgb(0,0,0)" stroke-width="2" /><path d="M +284.4876860966906,179.41176295280457 L 285.9108065953478,167.64705777168274 " fill="rgb(0,0,0)" stroke="rgb(0,0,0)" stroke-width="2" /><path d="M +285.9108065953478,167.64705777168274 L 284.96201985981315,158.82351398468018 " fill="rgb(0,0,0)" stroke="rgb(0,0,0)" stroke-width="2" /><path d="M +284.96201985981315,158.82351398468018 L 283.0645059933886,154.4117569923401 " fill="rgb(0,0,0)" stroke="rgb(0,0,0)" stroke-width="2" /><path d="M +283.0645059933886,154.4117569923401 L 281.16699212696403,152.94116139411926 " fill="rgb(0,0,0)" stroke="rgb(0,0,0)" stroke-width="2" /><path d="M +281.16699212696403,152.94116139411926 L 280.6925986427814,157.35291838645935 " fill="rgb(0,0,0)" stroke="rgb(0,0,0)" stroke-width="2" /><path d="M +280.6925986427814,157.35291838645935 L 280.6925986427814,157.35291838645935 " fill="rgb(0,0,0)" stroke="rgb(0,0,0)" stroke-width="2" /><path d="M 302.0398233551532,155.8823525905609 " fill="rgb(0,0,0)" stroke="rgb(0,0,0)" stroke-width="2" /><path d="M +302.0398233551532,155.8823525905609 L 300.616702856496,155.8823525905609 " fill="rgb(0,0,0)" stroke="rgb(0,0,0)" stroke-width="2" /><path d="M +300.616702856496,155.8823525905609 L 300.1423093723133,155.8823525905609 " fill="rgb(0,0,0)" stroke="rgb(0,0,0)" stroke-width="2" /><path d="M +300.1423093723133,155.8823525905609 L 297.29600853752345,160.294109582901 " fill="rgb(0,0,0)" stroke="rgb(0,0,0)" stroke-width="2" /><path d="M +297.29600853752345,160.294109582901 L 293.97531480062753,177.94116735458374 " fill="rgb(0,0,0)" stroke="rgb(0,0,0)" stroke-width="2" /><path d="M +293.97531480062753,177.94116735458374 L 293.02658766973764,189.70587253570557 " fill="rgb(0,0,0)" stroke="rgb(0,0,0)" stroke-width="2" /><path d="M +293.02658766973764,189.70587253570557 L 293.5009214328602,194.11762952804565 " fill="rgb(0,0,0)" stroke="rgb(0,0,0)" stroke-width="2" /><path d="M +293.5009214328602,194.11762952804565 L 294.9241015361622,195.58822512626648 " fill="rgb(0,0,0)" stroke="rgb(0,0,0)" stroke-width="2" /><path d="M +294.9241015361622,195.58822512626648 L 296.3472220348194,191.1764681339264 " fill="rgb(0,0,0)" stroke="rgb(0,0,0)" stroke-width="2" /><path d="M +296.3472220348194,191.1764681339264 L 298.24479550588876,183.82351994514465 " fill="rgb(0,0,0)" stroke="rgb(0,0,0)" stroke-width="2" /><path d="M +298.24479550588876,183.82351994514465 L 300.1423093723133,174.9999761581421 " fill="rgb(0,0,0)" stroke="rgb(0,0,0)" stroke-width="2" /><path d="M +300.1423093723133,174.9999761581421 L 301.091096107848,164.7058665752411 " fill="rgb(0,0,0)" stroke="rgb(0,0,0)" stroke-width="2" /><path d="M +301.091096107848,164.7058665752411 L 301.56542987097055,161.76470518112183 " fill="rgb(0,0,0)" stroke="rgb(0,0,0)" stroke-width="2" /><path d="M +301.56542987097055,161.76470518112183 L 301.56542987097055,170.588219165802 " fill="rgb(0,0,0)" stroke="rgb(0,0,0)" stroke-width="2" /><path d="M +301.56542987097055,170.588219165802 L 302.5142166065052,180.882328748703 " fill="rgb(0,0,0)" stroke="rgb(0,0,0)" stroke-width="2" /><path d="M +302.5142166065052,180.882328748703 L 303.4630033420399,189.70587253570557 " fill="rgb(0,0,0)" stroke="rgb(0,0,0)" stroke-width="2" /><path d="M +303.4630033420399,189.70587253570557 L 304.8861238406971,195.58822512626648 " fill="rgb(0,0,0)" stroke="rgb(0,0,0)" stroke-width="2" /><path d="M +304.8861238406971,195.58822512626648 L 306.3093039439991,198.52938652038574 " fill="rgb(0,0,0)" stroke="rgb(0,0,0)" stroke-width="2" /><path d="M +306.3093039439991,198.52938652038574 L 307.73242444265634,197.0588207244873 " fill="rgb(0,0,0)" stroke="rgb(0,0,0)" stroke-width="2" /><path d="M +307.73242444265634,197.0588207244873 L 309.6299979137257,191.1764681339264 " fill="rgb(0,0,0)" stroke="rgb(0,0,0)" stroke-width="2" /><path d="M +309.6299979137257,191.1764681339264 L 310.10433167684823,189.70587253570557 " fill="rgb(0,0,0)" stroke="rgb(0,0,0)" stroke-width="2" /><path d="M +310.10433167684823,189.70587253570557 L 310.10433167684823,189.70587253570557 " fill="rgb(0,0,0)" stroke="rgb(0,0,0)" stroke-width="2" /><path d="M 317.22011391539127,147.05880880355835 " fill="rgb(0,0,0)" stroke="rgb(0,0,0)" stroke-width="2" /><path d="M +317.22011391539127,147.05880880355835 L 316.7457204312086,148.52940440177917 " fill="rgb(0,0,0)" stroke="rgb(0,0,0)" stroke-width="2" /><path d="M +316.7457204312086,148.52940440177917 L 315.79693369567394,150.0 " fill="rgb(0,0,0)" stroke="rgb(0,0,0)" stroke-width="2" /><path d="M +315.79693369567394,150.0 L 313.8994198292494,163.23527097702026 " fill="rgb(0,0,0)" stroke="rgb(0,0,0)" stroke-width="2" /><path d="M +313.8994198292494,163.23527097702026 L 312.47629933059216,188.23527693748474 " fill="rgb(0,0,0)" stroke="rgb(0,0,0)" stroke-width="2" /><path d="M +312.47629933059216,188.23527693748474 L 312.47629933059216,195.58822512626648 " fill="rgb(0,0,0)" stroke="rgb(0,0,0)" stroke-width="2" /></svg>